<?xml version="1.0" encoding="utf-8"?>
<!-- Generator: Adobe Illustrator 16.0.0, SVG Export Plug-In . SVG Version: 6.00 Build 0)  -->
<!DOCTYPE svg PUBLIC "-//W3C//DTD SVG 1.1//EN" "http://www.w3.org/Graphics/SVG/1.1/DTD/svg11.dtd">
<svg version="1.1"
	 id="svg18653" xmlns:dc="http://purl.org/dc/elements/1.1/" xmlns:cc="http://creativecommons.org/ns#" xmlns:rdf="http://www.w3.org/1999/02/22-rdf-syntax-ns#" xmlns:svg="http://www.w3.org/2000/svg" xmlns:sodipodi="http://sodipodi.sourceforge.net/DTD/sodipodi-0.dtd" xmlns:inkscape="http://www.inkscape.org/namespaces/inkscape" sodipodi:docname="Logo Politeknik Negeri Padang.svg" inkscape:version="0.48.1 "
	 xmlns="http://www.w3.org/2000/svg" xmlns:xlink="http://www.w3.org/1999/xlink" x="0px" y="0px" width="600px" height="647px"
	 viewBox="0 0 600 647" enable-background="new 0 0 600 647" xml:space="preserve">
<title  id="title19104">Politeknik Negeri Padang (PNP)</title>
<sodipodi:namedview  id="namedview18655" showgrid="false" gridtolerance="10" objecttolerance="10" inkscape:cy="277.46143" bordercolor="#666666" guidetolerance="10" inkscape:cx="349.29988" pagecolor="#ffffff" borderopacity="1" inkscape:zoom="0.80680062" inkscape:window-width="1280" inkscape:window-x="-8" inkscape:window-height="972" inkscape:window-y="-8" inkscape:window-maximized="1" inkscape:current-layer="svg18653" inkscape:pageopacity="0" inkscape:pageshadow="2">
	</sodipodi:namedview>
<g>
	<g id="path4052-5-4_3_" transform="matrix(1.4802808,0,0,1.4802808,-102.89717,508.58748)">
		<path id="path4" fill="#FFFFFF" d="M353.028-269.879c65.411,0,118.435,53.022,118.435,118.435
			c0,65.409-53.025,118.426-118.435,118.426c-65.404,0-118.431-53.017-118.431-118.426
			C234.596-216.857,287.624-269.879,353.028-269.879z"/>
	</g>
	<path id="path9" inkscape:connector-curvature="0" fill="#049949" d="M420.32,453.021c-92.13,0-167.081-75.692-167.081-168.732
		c0-93.047,74.951-168.748,167.081-168.748c92.14,0,167.098,75.696,167.098,168.748C587.417,377.328,512.459,453.021,420.32,453.021
		L420.32,453.021z M420.32,116.879c-91.392,0-165.744,75.102-165.744,167.415c0,92.3,74.353,167.388,165.744,167.388
		c91.401,0,165.761-75.088,165.761-167.388C586.08,191.98,511.721,116.879,420.32,116.879L420.32,116.879z"/>
	<g id="path4054-4-6_1_" transform="matrix(1.4802808,0,0,1.4802808,-102.89717,508.58748)">
		<path id="path12" inkscape:connector-curvature="0" fill="#049949" d="M353.458-37.538c-53.06,0-96.232-51.134-96.232-113.986
			c0-62.858,43.171-113.997,96.232-113.997c53.075,0,96.244,51.136,96.244,113.997C449.701-88.672,406.529-37.538,353.458-37.538z
			 M353.458-264.618c-52.565,0-95.328,50.735-95.328,113.096c0,62.353,42.763,113.079,95.328,113.079
			c52.574,0,95.343-50.725,95.343-113.079C448.8-213.883,406.03-264.618,353.458-264.618z"/>
	</g>
	<g id="path4056-7-2_1_" transform="matrix(1.4802808,0,0,1.4802808,-102.89717,508.58748)">
		<path id="path15" inkscape:connector-curvature="0" fill="#049949" d="M353.458-37.538c-42.839,0-77.687-51.134-77.687-113.986
			c0-62.858,34.851-113.997,77.687-113.997c42.848,0,77.701,51.136,77.701,113.997C431.158-88.672,396.302-37.538,353.458-37.538z
			 M353.458-264.618c-42.34,0-76.786,50.735-76.786,113.096c0,62.353,34.446,113.079,76.786,113.079
			c42.35,0,76.797-50.725,76.797-113.079C430.25-213.883,395.803-264.618,353.458-264.618z"/>
	</g>
	<g id="path4058-3-6_1_" transform="matrix(1.4802808,0,0,1.4802808,-102.89717,508.58748)">
		<path id="path18" inkscape:connector-curvature="0" fill="#049949" d="M353.458-37.538c-32.042,0-58.114-51.134-58.114-113.986
			c0-62.858,26.074-113.997,58.114-113.997c32.057,0,58.13,51.136,58.13,113.997C411.588-88.672,385.511-37.538,353.458-37.538z
			 M353.458-264.618c-31.542,0-57.21,50.735-57.21,113.096c0,62.353,25.664,113.079,57.21,113.079
			c31.554,0,57.224-50.725,57.224-113.079C410.68-213.883,385.012-264.618,353.458-264.618z"/>
	</g>
	<g id="path4060-9-5_1_" transform="matrix(1.4802808,0,0,1.4802808,-102.89717,508.58748)">
		<path id="path21" inkscape:connector-curvature="0" fill="#049949" d="M353.458-37.538c-17.045,0-30.914-51.134-30.914-113.986
			c0-62.858,13.869-113.997,30.914-113.997c17.059,0,30.932,51.136,30.932,113.997C384.39-88.672,370.517-37.538,353.458-37.538z
			 M353.458-264.618c-16.546,0-30.008,50.735-30.008,113.096c0,62.353,13.462,113.079,30.008,113.079
			c16.558,0,30.024-50.725,30.024-113.079C383.479-213.883,370.016-264.618,353.458-264.618z"/>
	</g>
	<g id="rect4064-4-6_1_" transform="matrix(1.4802808,0,0,1.4802808,-102.89717,508.58748)">
		<rect id="rect24" x="353.458" y="-264.977" fill="#079948" width="0.482" height="227.018"/>
		<path id="path26" inkscape:connector-curvature="0" fill="#049949" d="M354.164-37.732h-0.929v-227.469h0.929V-37.732z
			 M353.685-38.185h0.026v-226.564h-0.026V-38.185z"/>
	</g>
	<g id="rect4074-2-4_1_" transform="matrix(1.4802808,0,0,1.4802808,-102.89717,508.58748)">
		<path id="path29" inkscape:connector-curvature="0" sodipodi:nodetypes="ccsccsc" fill="#079948" d="M244.866-124.421v0.473
			c0,0,73.85,12.669,111.42,12.514c35.796-0.141,106.036-12.514,106.036-12.514v-0.473c0,0-70.889,12.418-107.027,12.506
			C318.051-111.822,244.866-124.421,244.866-124.421L244.866-124.421z"/>
		<path id="path31" inkscape:connector-curvature="0" fill="#049949" d="M355.613-111.208c-37.364,0-110.054-12.391-110.783-12.515
			l-0.187-0.036v-0.938l0.26,0.051c0.726,0.129,73.053,12.506,109.976,12.506h0.42c35.695-0.086,106.275-12.383,106.991-12.506
			l0.258-0.051v0.938l-0.187,0.036c-0.695,0.124-70.661,12.378-106.07,12.515H355.613z M345.107-111.928
			c3.725,0.17,7.251,0.267,10.506,0.267h0.678c34.462-0.137,101.754-11.765,105.806-12.473v-0.024
			c-4.79,0.828-72.161,12.384-106.791,12.469h-0.427C351.839-111.689,348.565-111.772,345.107-111.928z M245.093-124.134
			c1.745,0.294,15.151,2.55,32.804,5.063c-17.439-2.497-30.768-4.743-32.804-5.087V-124.134z"/>
	</g>
	<g id="path4077-8-0_1_" transform="matrix(1.4802808,0,0,1.4802808,-102.89717,508.58748)">
		<path id="path34" inkscape:connector-curvature="0" sodipodi:nodetypes="ccsccsc" fill="#079948" d="M241.699-142.111v0.472
			c0,0,75.967,9.627,114.614,9.476c36.833-0.139,109.099-9.476,109.099-9.476v-0.472c0,0-72.947,9.381-110.106,9.468
			C316.991-132.551,241.699-142.111,241.699-142.111L241.699-142.111z"/>
		<path id="path36" inkscape:connector-curvature="0" fill="#049949" d="M355.412-131.937c-38.485,0-112.995-9.384-113.741-9.474
			l-0.199-0.028v-0.926l0.254,0.031c0.744,0.097,75.011,9.466,113.037,9.466h0.543c36.714-0.084,109.348-9.369,110.073-9.466
			l0.257-0.038v0.928l-0.195,0.03c-0.724,0.089-72.702,9.338-109.128,9.475h-0.901V-131.937z M241.925-141.84
			c4.31,0.543,76.006,9.452,113.491,9.452l0.901-0.004c35.453-0.133,104.645-8.909,108.872-9.45v-0.011
			c-4.787,0.607-74.227,9.348-109.881,9.43h-0.541c-36.933,0-108.007-8.828-112.842-9.43V-141.84z"/>
	</g>
	<g id="path4079-1-2_1_" transform="matrix(1.4802808,0,0,1.4802808,-102.89717,508.58748)">
		<path id="path39" inkscape:connector-curvature="0" sodipodi:nodetypes="ccsccsc" fill="#079948" d="M250.412-106.05v0.37
			c0,0,69.966,11.318,105.55,11.207c33.923-0.111,100.473-11.207,100.473-11.207v-0.37c0,0-67.186,11.13-101.394,11.214
			C319.756-94.777,250.412-106.05,250.412-106.05L250.412-106.05z"/>
		<path id="path41" inkscape:connector-curvature="0" fill="#049949" d="M355.436-94.247c-35.358,0-104.363-11.101-105.061-11.216
			l-0.188-0.027v-0.833l0.263,0.042c0.689,0.115,69.339,11.21,104.298,11.21h0.298c33.801-0.073,100.684-11.099,101.355-11.21
			l0.265-0.042v0.828l-0.194,0.03c-0.664,0.112-66.954,11.108-100.502,11.214h-0.532V-94.247z"/>
	</g>
	<g id="path4083-2-8_1_" transform="matrix(1.4802808,0,0,1.4802808,-102.89717,508.58748)">
		<path id="path44" inkscape:connector-curvature="0" sodipodi:nodetypes="ccsccsc" fill="#079948" d="M259.719-89.482v0.368
			c0,0,63.711,6.595,96.143,6.474c30.881-0.108,91.496-6.474,91.496-6.474v-0.368c0,0-61.178,6.403-92.353,6.467
			C322.871-82.942,259.719-89.482,259.719-89.482z"/>
		<path id="path46" inkscape:connector-curvature="0" fill="#049949" d="M354.971-82.407c-32.323,0-94.65-6.414-95.274-6.481
			l-0.201-0.017v-0.819l0.252,0.026c0.622,0.062,62.797,6.461,94.717,6.461h0.544c30.803-0.062,91.715-6.399,92.33-6.461
			l0.247-0.026v0.819l-0.205,0.017c-0.605,0.065-60.975,6.372-91.516,6.476L354.971-82.407z"/>
	</g>
	<g id="path4085-8-2_1_" transform="matrix(1.4802808,0,0,1.4802808,-102.89717,508.58748)">
		<path id="path49" inkscape:connector-curvature="0" sodipodi:nodetypes="ccsccsc" fill="#079948" d="M272.649-73.254v0.375
			c0,0,54.851,0.493,82.763,0.384c26.593-0.111,78.769-0.384,78.769-0.384v-0.375c0,0-52.669,0.309-79.505,0.384
			C327.015-72.801,272.649-73.254,272.649-73.254z"/>
		<path id="path51" inkscape:connector-curvature="0" fill="#049949" d="M346.455-72.246c-28.898,0-73.364-0.4-73.808-0.4
			l-0.226-0.002v-0.83l0.228,0.002c0.474,0.002,47.592,0.39,76.07,0.39c2.098,0,4.089-0.002,5.957-0.009
			c26.526-0.066,78.975-0.379,79.507-0.381l0.221-0.002v0.83l-0.221,0.002c-0.525,0.003-52.481,0.267-78.767,0.384
			C352.661-72.256,349.649-72.246,346.455-72.246z"/>
	</g>
	<g id="path4087-9-2_1_" transform="matrix(1.4802808,0,0,1.4802808,-102.89717,508.58748)">
		<path id="path54" inkscape:connector-curvature="0" sodipodi:nodetypes="ccsccsc" fill="#079948" d="M287.561-59.732v0.371
			c0,0,43.744,0.505,66.493,0.389c21.686-0.106,65.242-0.389,65.242-0.389v-0.371c0,0-43.949,0.316-65.828,0.389
			C330.901-59.28,287.561-59.732,287.561-59.732z"/>
		<path id="path56" inkscape:connector-curvature="0" fill="#049949" d="M346.545-58.73c-23.409,0-58.638-0.4-58.99-0.4
			l-0.221-0.002v-0.826l0.228,0.002c0.38,0.003,38.085,0.391,61.191,0.391c1.649,0,3.226-0.002,4.712-0.007
			c21.638-0.073,65.395-0.382,65.83-0.385l0.23-0.002v0.826l-0.223,0.002c-0.435,0.005-43.802,0.281-65.247,0.387
			C351.749-58.73,349.219-58.73,346.545-58.73L346.545-58.73z"/>
	</g>
	<g id="path4089-8-9_1_" transform="matrix(1.4802808,0,0,1.4802808,-102.89717,508.58748)">
		<path id="path59" inkscape:connector-curvature="0" sodipodi:nodetypes="ccsccsc" fill="#079948" d="M302.647-50.595v0.373
			c0,0,34.186,0.162,51.799,0.047c16.778-0.107,50.15-0.047,50.15-0.047v-0.373c0,0-33.679-0.036-50.611,0.044
			C336.521-50.476,302.647-50.595,302.647-50.595z"/>
		<path id="path61" inkscape:connector-curvature="0" fill="#049949" d="M338.367-49.906c-16.703,0-35.529-0.088-35.724-0.088
			l-0.224-0.005v-0.821h0.224c0.204,0,20.195,0.066,37.183,0.066c5.182,0,10.113-0.011,14.151-0.024
			c9.505-0.042,24.33-0.053,35.082-0.053c8.878,0,15.529,0.011,15.529,0.011h0.225v0.826h-0.225c0,0-9.347-0.018-20.642-0.018
			c-12.953,0-22.88,0.024-29.507,0.067C350.312-49.924,344.9-49.906,338.367-49.906L338.367-49.906z"/>
	</g>
	<g id="path4091-7-0_1_" transform="matrix(1.4802808,0,0,1.4802808,-102.89717,508.58748)">
		<path id="path64" inkscape:connector-curvature="0" sodipodi:nodetypes="ccsccsc" fill="#079948" d="M241.549-161.833v-0.479
			c0,0,78.595,5.441,116.455,5.586c36.065,0.133,106.841-7.105,106.841-7.105v0.471c0,0-71.436,7.196-107.844,7.105
			C319.477-156.345,241.549-161.833,241.549-161.833z"/>
		<path id="path66" inkscape:connector-curvature="0" fill="#049949" d="M357.688-156.023h-0.687
			c-37.105-0.093-114.688-5.529-115.468-5.582l-0.208-0.018v-0.929l0.241,0.017c0.786,0.053,79.014,5.445,116.437,5.585l0.999,0.005
			c35.933,0,105.122-7.036,105.818-7.11l0.247-0.026v0.931l-0.204,0.02C464.159-163.058,393.888-156.023,357.688-156.023
			L357.688-156.023z M241.777-162.04c4.529,0.318,79.094,5.475,115.229,5.565h0.687c2.199,0,4.522-0.023,6.951-0.074
			c-1.952,0.034-3.84,0.05-5.638,0.05h-0.999c-36.396-0.141-111.376-5.238-116.225-5.573v0.031H241.777z M464.614-163.581
			c-1.248,0.124-7.065,0.706-15.566,1.489c8.589-0.779,14.423-1.355,15.566-1.469V-163.581z"/>
	</g>
	<g id="path4093-1-0_1_" transform="matrix(1.4802808,0,0,1.4802808,-102.89717,508.58748)">
		<path id="path69" inkscape:connector-curvature="0" sodipodi:nodetypes="ccsccsc" fill="#079948" d="M244.541-179.411v-0.377
			c0,0,72.562,4.571,109.144,4.678c34.851,0.117,108.268-6.031,108.268-6.031v0.375c0,0-74.055,6.104-109.224,6.044
			C316.462-174.806,244.541-179.411,244.541-179.411L244.541-179.411z"/>
		<path id="path71" inkscape:connector-curvature="0" fill="#049949" d="M353.244-174.497h-0.519
			c-35.855-0.081-107.479-4.642-108.199-4.686l-0.212-0.013v-0.83l0.24,0.013c0.727,0.046,72.976,4.572,109.131,4.682h0.978
			c34.81,0,106.548-5.971,107.27-6.031l0.247-0.02v0.83l-0.211,0.017C461.237-180.479,388.229-174.497,353.244-174.497z"/>
	</g>
	<g id="path4095-5-8_1_" transform="matrix(1.4802808,0,0,1.4802808,-102.89717,508.58748)">
		<path id="path74" inkscape:connector-curvature="0" sodipodi:nodetypes="ccsccsc" fill="#079948" d="M251.165-198.174v-0.389
			c0,0,71.035,6.772,103.505,6.896c30.949,0.108,101.204-6.896,101.204-6.896v0.389c0,0-70.822,6.942-102.052,6.878
			C321.637-191.368,251.165-198.174,251.165-198.174z"/>
		<path id="path76" inkscape:connector-curvature="0" fill="#049949" d="M354.274-191.068h-0.452
			c-31.828-0.073-101.97-6.811-102.675-6.878l-0.205-0.019v-0.843l0.247,0.024c0.709,0.066,71.394,6.77,103.483,6.891l0.713,0.003
			c30.929,0,99.779-6.828,100.469-6.894l0.247-0.024v0.843l-0.203,0.019C455.192-197.879,385.381-191.068,354.274-191.068
			L354.274-191.068z"/>
	</g>
	<g id="path4097-8-0_1_" transform="matrix(1.4802808,0,0,1.4802808,-102.89717,508.58748)">
		<path id="path79" inkscape:connector-curvature="0" sodipodi:nodetypes="ccsccsc" fill="#079948" d="M260.845-215.43v-0.374
			c0,0,61.064,7.112,92.879,7.229c30.335,0.111,90.345-9.927,90.345-9.927v0.372c0,0-60.569,10.003-91.169,9.932
			C321.345-208.28,260.845-215.43,260.845-215.43z"/>
		<path id="path81" inkscape:connector-curvature="0" fill="#049949" d="M353.217-207.972H352.9
			c-31.205-0.081-91.476-7.163-92.081-7.233l-0.199-0.023v-0.834l0.254,0.031c0.61,0.073,61.413,7.112,92.852,7.226l0.503,0.003
			c30.119,0,89.211-9.827,89.804-9.927l0.265-0.045v0.83l-0.189,0.031C443.501-217.812,383.586-207.972,353.217-207.972
			L353.217-207.972z"/>
	</g>
	<g id="path4099-1-8_1_" transform="matrix(1.4802808,0,0,1.4802808,-102.89717,508.58748)">
		<path id="path84" inkscape:connector-curvature="0" sodipodi:nodetypes="ccsccsc" fill="#079948" d="M278.429-235.704v-0.379
			c0,0,51.07,11.663,76.61,11.781c24.328,0.107,75.848-9.418,75.848-9.418v0.379c0,0-51.967,9.496-76.522,9.415
			C329.042-223.995,278.429-235.704,278.429-235.704L278.429-235.704z"/>
		<path id="path86" inkscape:connector-curvature="0" fill="#049949" d="M354.659-223.7h-0.294
			c-25.058-0.066-75.481-11.67-75.987-11.787l-0.174-0.041v-0.84l0.276,0.064c0.508,0.117,51.337,11.66,76.566,11.774l0.408,0.003
			c24.186,0,74.881-9.324,75.394-9.418l0.267-0.05v0.837l-0.183,0.037C430.412-233.027,379.074-223.7,354.659-223.7L354.659-223.7z
			 M321.148-227.609c5.211,0.834,10.462,1.593,15.476,2.182C331.604-226.026,326.349-226.782,321.148-227.609z"/>
	</g>
	<g id="path4101-6-2_1_" transform="matrix(1.4802808,0,0,1.4802808,-102.89717,508.58748)">
		<path id="path89" inkscape:connector-curvature="0" sodipodi:nodetypes="ccsccsc" fill="#079948" d="M290.577-245.177v-0.378
			c0,0,42.285,4.231,64.069,4.348c20.755,0.107,62.016-4.348,62.016-4.348v0.378c0,0-41.646,4.408-62.591,4.344
			C332.479-240.906,290.577-245.177,290.577-245.177z"/>
		<path id="path91" inkscape:connector-curvature="0" fill="#049949" d="M354.535-240.605h-0.463
			c-21.364-0.073-63.1-4.303-63.517-4.347l-0.201-0.023v-0.831l0.247,0.027c0.422,0.041,42.521,4.23,64.049,4.341l0.755,0.004
			c20.728,0,60.834-4.301,61.242-4.345l0.25-0.027v0.831l-0.201,0.023C416.274-244.912,375.394-240.605,354.535-240.605z"/>
	</g>
	<g id="path4998_1_">
		
			<path id="path95" inkscape:connector-curvature="0" sodipodi:nodetypes="ccccccccccccccccccccccccccccccccccccccccccccccccccccccccccccccccccccccccccccccccccccccccccccccccccccccccccccccccccccccccccccccccccccccccccccccccccccccccccccccccccccccccccccccccccccccccccccccccccccccccccccccccccccccccccccccccccccccccccccccccccccccccccccccccccccccccccccccccccccccccccccccccccccccccccccccccccccccccccccccccccccccccccccccccccccccccccccccccccccccccccccccccccccccccccccccccccccccccccccccccccccccccccccccccccccccccccccccccccccccccccccccccccccccccccccccccccccccccccccccccccccccccccccccccccccccccccccccccccccccccccccccccccccccccccccccccccccccccccccccccccccccccccccccccccccccccccccccccccccccccccccccccccccccccccccccccccccccccccccccccccccccccccccccccccccccccccccccccccccc" fill="#079948" d="
			M420.73,116.29c-66.217,0-123.422,39.019-150.299,95.517l0.644,0.264l0.876,0.131l2.373-0.395l1.405-0.757l1.526-0.964
			l-0.389,1.165l-0.412,0.418l0.212,0.673l0.2,0.539l-0.288,0.461l-0.262,0.767l-0.206,0.593l-0.029,1.188l0.265,0.016l0.765-0.227
			l-0.203,1.02l-0.419,0.034l-0.084,0.709l0.412,0.371v0.928l1.059-0.13l0.961-1.085l-0.409,1.119l-0.647,0.711l-0.837,0.707
			l-0.902,0.125l0.068,4.377l0.321,0.924l0.415,0.322l1.285-0.971l1.111-0.744l0.063-0.869l0.699-0.684l0.262-0.798l0.209-0.768
			l0.699-0.623l0.118,0.803l0.02,0.65l-0.137,0.621l-0.526,0.562l0.203,0.459l-0.559,0.214l0.026,1.262l-0.363,0.291l0.075,0.944
			l-0.409,0.579l-0.533,1.222l-0.464,1.161l-0.378,0.613l-0.026,0.847l0.522,0.446l-0.235,0.796l-0.522,0.558l-0.089,1.44
			l-0.375,0.271l0.082,1.652l-0.38,0.235l0.037,2.443l-0.474,0.317l0.082,1.745l-0.435,0.207l0.085,2.801l0.424,1.223l-0.49,0.696
			l0.49,1.941l-0.098,3.417l0.021,0.887l-0.021,0.415l-0.529,0.331l0.169,0.734l0.029,0.76l-0.114,0.823l0.356,0.3l-0.036,1.911
			l0.48,0.482v1.409l0.317,0.681l0.141,8.143l0.448,0.287l-0.213,1.629l0.494,0.352l-0.079,0.823l0.604,0.495l0.174,0.801
			l0.826,0.285l0.886-0.904l0.261-0.951l0.406-1.185l0.85-1.325l1.222-0.492l-0.076-1.131l0.614-1.288l0.491-1.174l1.412-0.236
			l-0.212-2.309l0.552-0.632l0.272-2.838l1.081-1.955l0.939-2.703l0.173-1.333l-0.291-1.649l0.032-0.797l-0.147-1.115l0.526-0.482
			l-0.118-0.825l-0.088-1.446l0.533-0.371l-0.088-0.89l0.817-0.444l0.35-0.993l0.559-0.16l0.078,0.706l0.562-0.261v-0.355
			l5.713-5.867l4.654-5.046l3.416-3.07l2.45-1.108l3.047-3.139l-0.118-1.992l1.53-1.453h0.493l0.411-0.358l0.93-0.086l1.408-1.798
			l-0.905,2.303h0.879l1.137-1.764l0.19,1.383l0.464-0.083l0.154-0.744l0.691,0.792l1.913-1.15l0.193,0.358l0.847-0.412l1.694-0.82
			l0.468-0.332l-0.165-1.981l-0.331-0.482v-0.776l0.353,0.923l1.111-0.071l0.327,0.144l0.901,0.175l-0.12,0.559l0.395,0.595v0.817
			l0.292,1.426l-0.65,0.381l0.438,0.23l0.092,1.242l0.146,0.948l0.086,1.144l0.316,1.035l0.84,1.155l0.916,1.087l0.761-1.115
			l0.036,3.682l0.372,0.418l-0.062,0.342l0.412,0.92l0.725,0.66l0.419,0.358l0.033,4.645l-0.471,0.382l0.052,0.92l-0.395,0.325
			l-0.096,0.815l-0.179,0.219l-0.061,0.556l-0.313,0.313l-0.184,0.512l-0.297,0.288v0.864l0.271,0.406l0.525-0.079l0.298,0.382
			l0.816,0.022l0.377,0.503l2.022-0.064l0.258-0.669l0.382-0.233l0.417-0.549l0.407-0.435l0.351-0.559l0.389,0.12l0.333-0.444
			l0.475,0.029l0.323-0.438h0.467l0.324-0.335h0.35l0.438-0.428v-1.274l0.386-0.393l0.107-1.14l0.742,1.258l0.323-0.035l0.086,2.306
			l0.265,0.351l0.029,0.51l0.429,0.23v6.199l0.396,0.616l-0.044,1.885l0.354,0.227v1.565l0.732,1.038l0.181,0.65l0.29,0.354
			l-0.198,1.061l0.666,0.405l-0.563,0.532l-0.075,0.683l-0.618,0.265l-0.036,0.332l0.402,0.409v0.626l-0.366,0.266l0.15,0.556
			l0.398,0.526l-0.137,0.501l-0.765,0.051l0.255,0.619l0.596,0.23l0.264,0.604l-0.414,0.39v1.567l-0.32,0.85l-0.472,0.288
			l0.118,2.249l-0.149,2.13l-0.384,0.268l0.065,0.547l-0.383,0.271v0.503l-0.372,0.247l-0.055,1.647l-0.393,0.291l-0.027,1.181
			l0.376,0.375l0.151,0.971l0.728-0.939l0.275,0.528l0.493-0.174v0.796l0.762,0.038l0.2,0.345l0.182,1.185h0.812l0.153,1.499
			l0.758,0.77l0.582,0.642l-0.056,0.616l0.226,0.45l0.742,0.261l0.52,0.946l-0.052,1l0.177,0.555l-0.092,0.403l0.493,0.616
			l0.386,0.648l-0.408,0.577l0.144,0.562l-0.731,0.022l-0.023,0.757l0.847,0.057l0.056,0.99l0.382,0.588l0.406,0.389l-0.023,2.476
			l0.346,0.063l0.03,1.654l0.826,0.56l1.007,1.287l0.553,0.945l0.067,1.529l1.438,1.102l1.362,1.275l1.916,1.141l0.818,0.944
			l1.516,1.056l1.442,1.418l0.907-1.124l0.354,0.105l0.752,0.466l0.63-1.002l-0.46-1.235l-0.883-1.899l-0.766-0.526l-0.757-1.99
			l-0.229-1.975l-0.468-1.577l0.524-1.115l0.124-2.603l-0.831-1.235l-0.46-1.837l-1.052-1.176l-1.466-1.708l-1.698-1.064
			l-1.289-1.642l-0.35-1.075h-1.641l-1.405-0.412l-0.758-2l-0.236-1.593l-0.401-2.424l-0.813-1.175l-0.706-1.594l-0.241-1.006
			l1.113-0.415l-0.281-1.76l-0.248,1.473l-2.16,0.997l-0.645-0.527l0.114-3.895l1.639-3.136l0.592-2.101l1.048-1.966l0.354-1.051
			l0.118-1.405l0.581-0.368l0.124-2.306l0.056-0.888l0.468-0.584l2.457,0.077l0.301,1.885l-0.646,0.99l-0.48,1.127h4.455l1.169,1.53
			l1.824,0.999l0.697,1.297l0.349,0.941l-0.062,1.237v1.42l1.467-0.294l-0.114-0.765l0.346-0.233l0.407,0.7l0.169,1.536l1.308,0.182
			l-0.359,1.064l1.065-0.652l0.863,0.474l0.87,0.65l1.241,0.827l0.294,1.061l-0.703,1.533l-0.346,1.827l0.281,0.933l-0.635,0.653
			l1.274,0.187l1.004-1.237l1.229-0.649l1.824-0.765l0.813-1.375l0.821,0.247l0.411-1.185l0.761-1.418l-0.179-1.583l1.816,0.526
			l2.804-2.005l2.864-1.473l2.16-0.648l0.241-1.051l0.405-0.61l0.236-1.533v-1.881l1.052-0.888l0.526-0.884l-0.813-0.893
			l-0.124-2.591l-0.821-3.466l-1.104-3.372l-1.351-2.188l-1.287-1.651h-0.703l-2.752-2.358v-0.757l-1.52-1.543l-0.536-1.541
			l-0.399-1.351l-1.398-0.406l-0.474-1.658l-0.118-1.542l0.886-2.118l0.763-1.466l2.27-1.596l1.299-2.303l2.29-0.526l0.877-1.304
			l2.035-0.874l1.229-0.528l1.521,0.823l1.232,0.579l1.51-0.703l0.649,0.355l0.35,0.642l-0.813,0.958l-0.06,2.172l0.872,0.828
			l1.817,0.364l0.592-0.941l-1.412-1.659v-1.239l1.049-0.352l0.704-0.948l4.977-0.297l5.91-2.484l0.826-2.888l1.112,3.126
			l0.535-0.396l1.742-0.719l0.406-1.472l4.447-0.118l1.402-0.418l1.047,0.07l0.888-1.188l1.923-1.402l3.346-2.078l4.966-4.424
			l5.269-9.315l0.793-1.45l0.582,0.325l0.965,0.739l0.294-0.489l0.037-0.518v-0.673l0.659-0.023l0.359-0.652l-0.738-0.194
			l-0.199-0.962l0.408-0.729h1.294l-0.3-0.817l-0.563-0.74l0.193-0.689l1.105-0.348l-0.063-0.541l-0.914,0.273l-1.216,0.328
			l-0.687-0.601l-0.837-0.526h-1.176l-1.959-0.118l4.099-1.15l1.608-0.559h-0.533l-0.607-1.303l-3.337-1.828l-0.644-0.572
			l2.166,0.981l2.801,0.866l-1.179-1.134l-0.196-0.526l1.085-0.173l-1.426-0.677l-0.892-1.102l-1.134-0.02l-0.387-0.479
			l-0.078-1.034l-0.565-1.285l-0.662-0.807l-0.501-1.114l-0.082-0.819l-1.382-0.623l-1.491-0.438l-0.997-0.475l-0.137-0.597
			l0.546-0.613l0.615-0.502l0.303-0.853l0.955-0.061l0.588-0.706l0.111-1.009l0.656,0.356l0.759-0.774l1.403-0.779l1.633-0.76
			l2.102,0.044l0.235-0.419l0.592-0.435v-0.648l-3.275-0.115l-1.088-0.661l-1.16-0.371l-1.554,0.312l-1.195,1.218l-0.882,0.281
			h-1.236l-0.732-0.408l-0.11-1.035l-0.354-0.796l0.148-0.285l-0.622-0.439l-0.529,0.286h-1.334l-1.291-0.801l-0.766-1.077
			l0.881-0.974l1.176-0.13l0.634,0.565l0.767-0.565l1.031,0.14l0.658-0.379l0.624-1.064l0.695-0.227l0.854-0.511l0.766-0.619
			l0.901-0.265l1.144-0.911l0.847-0.971l0.565,0.438l0.876-0.109l1.137,0.32l0.541,0.881l-0.952,1.178l-0.993,0.651l-0.576,0.754
			h0.615l0.904-0.04l-0.233,0.499l-0.115,0.977l-0.681-0.299l-0.46,0.603l1.045-0.1l1.023-0.68l0.624-0.59l1.642-0.559l1.428-0.623
			l1.337-0.498l0.355,0.205h1.881l1.529,0.351l1.362,0.62l0.524,0.77l-0.227,0.526l-1.429,0.682l1.687,0.412l-1.216,0.229
			l-0.602,0.92l0.386,0.735l1.491,0.978l1.234-0.24l1.196,0.418l0.281-0.452l0.961,0.091l-0.102,0.441l0.438,0.563l0.662,0.438
			l0.685,0.74h-0.412h-0.85l-0.876,0.067v0.795l0.615,0.051l0.882,0.649l0.022,1.396l0.471,0.412l-0.448,0.489l-0.198,0.743
			l-0.622,0.831l-0.225,1.466l0.732,0.652l1.323,0.53l0.604-0.582l1.292-0.529l0.673-0.619h0.763l0.49-0.485l0.408,0.452
			l0.856-0.111l0.49-0.521l0.82-0.13l0.621,0.796l0.777-0.796l0.308-1.216l-0.441-2.185l-0.448-1.74l-0.644-1.069l-1.461-1.377
			l-1.354-1.262l-0.78-0.954l-0.812-0.646l-1.738-0.733l-0.706-0.978l0.977-1.178l1.403-0.234l1.202-0.856l1.572-1.242l0.887-0.53
			l-0.184-0.15l-0.513-0.261v-0.911l0.656-0.917l1.056-0.444l-0.435-0.556l0.174-0.92l1.026-0.201l0.474,0.495l0.487-0.415
			l0.447-0.834l1.219-0.009l0.873,0.268l0.918,0.441l0.873,0.438l0.187,0.707l0.322-0.643l1.337,0.198l1.441-0.559l0.907-0.325
			l0.296-0.91l2.732-3.121l2.023-2.216l-0.06-1.176l0.746-0.858l0.88-1.713l-0.736-1.766l-1.056-1.771l-0.901-1.246l-0.171-1.767
			l-1.294-1.706l-0.938-0.412l-1.816-0.843l-0.929-0.565l-1.415-0.262l-1.072,0.371l-1.644,0.096l-0.501-0.317l-1.256,0.057
			l-0.996-0.888l-1.484-0.454l-1.492-0.552l2.288-1.009l2.915-1.53l1.494-1.683l1.637,0.45l2.582,0.083l2.684,0.829l3.774,0.108
			l3.697,1.485l3.526,0.366l-2.891-1.252l-0.035-1.095l5.749,2.262l-1.823-1.375l3.893,2.061l0.291,0.718l0.451,0.809l-0.304,0.575
			l1.49,1.533l2.582,2.002l1.277,0.737l1.912,1.585l2.727,1.597l2.265,1.784l1.327,1.195l0.088-0.646l-0.035-0.97l-1.789-1.412
			h1.703l-1.347-0.906l-1.166-0.897l1.216-0.028l-0.285-0.384l-1.192-1.06l-1.196-1.058l-2.114-1.034l-2.305-1.126l-2.229-1.735
			l4.556,1.655l0.029-0.067c-21.504-10.223-45.519-15.947-70.875-15.947v0.022H420.73z"/>
	</g>
	<g id="path4898_1_">
		<path id="path98" inkscape:connector-curvature="0" sodipodi:nodetypes="ccccc" fill="#079948" d="M360.281,304.008l-0.459,0.572
			l0.771-0.065l0.522-0.448L360.281,304.008z"/>
	</g>
	<g id="path4896_1_">
		<path id="path101" inkscape:connector-curvature="0" fill="#079948" d="M433.374,205.397l0.585,0.743l0.549,0.61l-0.444,0.394
			l-0.06,1.814l-0.443,1.035l-0.53,1.644l-0.437,1.174l-0.102,1.383l-0.975,1.328l-0.631,1.239l-0.252,1.332l-0.929-1.188
			l-2.006-2.915v-1.137l0.399-0.537l0.14-1.428l0.578-0.683l0.549-0.994l0.422-0.629l0.351-0.506l0.601-0.873l1.075-0.901
			l0.834-0.349L433.374,205.397z"/>
	</g>
	<g id="path5058-5_1_">
		<path id="path104" inkscape:connector-curvature="0" fill="#079948" d="M285.76,265.774l1.088,1.071l0.755,1.861l0.34,1.238
			l0.291,1.463l0.631,2.44l0.33,1.06v2.102l-0.484,0.386l0.027,1.191l-0.376,0.361l-0.722,0.7l-0.559,0.596l-1.06,0.706
			l-0.385,0.023l-0.474-1.091l-0.539-0.672l-0.098-1.316l-0.385-0.265l-0.063-3.14l0.491-0.683l-0.102-2.104l0.576-0.297
			l-0.118-1.53l0.497-0.228l-0.087-1.034l-0.465,0.051l0.696-0.212L285.76,265.774z"/>
	</g>
	<g id="path5070_1_">
		<path id="path107" inkscape:connector-curvature="0" fill="#079948" d="M323.327,252.403l-1.864,7.186l0.464-0.655l1.558-5.771
			L323.327,252.403z"/>
	</g>
	<g id="path5072_1_">
		<path id="path110" inkscape:connector-curvature="0" fill="#079948" d="M320.637,263.107l-0.461,0.789l0.441,0.23l0.504-0.327
			L320.637,263.107z"/>
	</g>
	<g id="path5074_1_">
		<path id="path113" inkscape:connector-curvature="0" fill="#079948" d="M321.023,269.674l-0.418,0.823l0.953,0.1v-0.592
			L321.023,269.674z"/>
	</g>
	<g id="path5076_1_">
		<path id="path116" inkscape:connector-curvature="0" fill="#079948" d="M322.918,273.672l-0.078,0.753l-0.458,0.291l0.493,0.7
			l0.416-0.067L322.918,273.672z"/>
	</g>
	<g id="path5078_1_">
		<path id="path119" inkscape:connector-curvature="0" fill="#079948" d="M323.699,277.839l-0.238,0.463l-0.334,0.294l0.284,0.255
			l0.082,0.914l0.552,0.204L323.699,277.839z"/>
	</g>
	<g id="path5080_1_">
		<path id="path122" inkscape:connector-curvature="0" fill="#079948" d="M523.206,245.131l-0.931,1.415l1.872-0.23L523.206,245.131
			z"/>
	</g>
	<path id="path125" inkscape:connector-curvature="0" fill="#079948" d="M521.448,251.024l-0.814,1.189l0.35,1.184l1.526-1.074
		L521.448,251.024z"/>
	<g id="path5084_1_">
		<path id="path128" inkscape:connector-curvature="0" fill="#079948" d="M391.662,225.642l-3.075,0.067l-0.414,0.439l-2.043-0.028
			l-0.671,0.911l-0.354-0.113l-0.353,0.441l-0.444,0.386l-0.405-0.088l-0.376,0.473l-0.441,0.28l-0.032,0.757l-0.5,0.508
			l0.101,1.453l0.585,0.529l0.295,0.335l0.581-0.061l0.229,0.406l0.234,0.504l0.526,0.351l0.933-0.035l0.202-0.47h1.236l0.352-0.507
			l0.461,0.098l0.235-0.439l0.023-0.41l0.271-0.268l0.585-0.473l0.67-0.69l-0.033-0.539l0.478-0.364l0.585-0.466l0.206-0.696
			l0.48-0.221l-0.043-0.646l0.243-0.127l-0.061-0.445l-0.211-0.258L391.662,225.642z"/>
	</g>
	<g id="path5086_1_">
		<path id="path131" inkscape:connector-curvature="0" fill="#079948" d="M448.712,177.488l-1.229,0.177l0.242,0.826l1.275-0.121
			l0.531-0.422L448.712,177.488z"/>
	</g>
	<g id="path5088_1_">
		<path id="path134" inkscape:connector-curvature="0" fill="#079948" d="M434.136,228.158l-1.153,0.235l0.457,0.635
			L434.136,228.158z"/>
	</g>
	<g id="path5090_1_">
		<path id="path137" inkscape:connector-curvature="0" fill="#079948" d="M436.319,229.508l-1.301,0.955l0.642,0.397l0.993-0.819
			L436.319,229.508z"/>
	</g>
	<g id="path5092_1_">
		<path id="path140" inkscape:connector-curvature="0" fill="#079948" d="M363.1,305.25l-0.627,0.366l0.255,0.51l0.45,0.621
			l0.458-0.379l0.042-0.915L363.1,305.25z"/>
	</g>
	<g id="path5094_1_">
		<path id="path143" inkscape:connector-curvature="0" fill="#079948" d="M361.656,305.081l-0.755,0.627l1.372,1.124l0.32-0.359
			l-1.032-0.719l0.337-0.255L361.656,305.081z"/>
	</g>
	<g id="path5096_1_">
		<path id="path146" inkscape:connector-curvature="0" fill="#079948" d="M362.433,306.996l-0.372,0.418l0.67,0.068L362.433,306.996
			z"/>
	</g>
	<g id="path5098_1_">
		<path id="path149" inkscape:connector-curvature="0" fill="#079948" d="M377.212,293.494l-0.247,0.412l1.575,1.127l0.567-0.265
			l-1.773-1.131L377.212,293.494z"/>
	</g>
	<g id="path5100_1_">
		
			<path id="path152" inkscape:connector-curvature="0" sodipodi:nodetypes="cccccccccccccccccccccccccccccccccccccccccccccccccccccccccccccccccccccccccccccccccccccccccccccccccccccccccccccccccccccccccccc" fill="#079948" d="
			M332.635,286.98l-0.441-0.377h-0.589l-0.872-0.714l-0.572-0.819l-1.166-0.053l-0.333,0.582l-0.441,0.389l0.398,0.662l0.258,0.747
			l0.164,0.802l0.375,0.537l0.248,0.371l0.665,0.383l0.201,0.782l0.88,0.59l0.457,0.706l0.366,0.719l0.909,0.697l0.745-0.033
			l0.496,0.742l0.288,0.888l0.281,0.907l1.373,0.635l0.617,1.071l-0.031,1.308l0.564,0.362l-0.036,0.543l1.405,0.754l0.905,0.707
			l0.755,0.706l0.572,0.765l1.288,5.36l1.769,1.212l1.254,1.585l1.445,2.588l4.436,8.632l2.772,2.979l2.361,2.134l1.805,1.624
			l1.376,0.951l1.82,1.922l4.543,2.642l2.779,0.977l0.473-0.902l0.226-0.643l-0.322-2.243l-0.246-0.813l-0.117-1.099l0.016-1.444
			l0.592-1.432l-0.241-0.898l0.11-1.331l-2.975-3.542l-0.826-0.422l-0.709,0.507l-1.072,0.035l0.159-0.454l0.471-0.17l0.033-0.954
			l-0.415-0.837l-0.405-0.876l-0.922-1.915l-0.278-1.183l-1.24,0.088l-1.416-0.578l-0.824-0.837l0.157-0.761l0.71-0.292l0.539-0.169
			l-0.92-0.445l0.181-1.042l1.115-0.468l-0.341-0.67l-0.866-0.83l-2.022-0.075l-0.461,0.654l-0.863,0.052l0.419-0.37l0.084-0.793
			l0.569-0.046v-0.837l-1.072-0.239l-0.829,0.076l-0.615-1.042l-0.287-0.585l-0.494-1.334l-0.84-0.131l-0.866-0.797l-0.493-0.026
			l0.823-0.673l-0.415-1.088l-1.111,0.232l0.611,0.856l-0.415,0.627l-0.533-1.249l-0.663-0.876l-0.866-0.896l-0.168,1.134
			l0.348,0.918l-1.131-1.418l-0.912-1.38l-1.614-0.79l-0.114-1.28h-0.543l0.072-0.806l-0.827-0.282l-0.944-1.003l-0.774-0.466
			l-1.334-0.707l-0.582-1.111l-1.117-0.502l-0.21-0.683l0.046-1.171l-0.571-0.158l-0.496-0.555l0.081-0.947l-0.713-0.794
			l-0.87-0.428l-0.866-0.318l-1.074-0.381h-0.991l-0.163,0.583L332.635,286.98z"/>
	</g>
	<g id="path5102_1_">
		<path id="path155" inkscape:connector-curvature="0" fill="#079948" d="M367.739,316.792l-0.827,0.964l0.369,1.379l1.856,0.62
			l1.039,2.007l1.239,0.886l1.376-0.847l-0.134-0.918l-1.54-0.833l-0.817-1.121l-0.863-1.556L367.739,316.792z"/>
	</g>
	<g id="path5104_1_">
		<path id="path158" inkscape:connector-curvature="0" fill="#079948" d="M376.418,321.265l-0.904,1.334l1.075,1.288l1.483-0.333
			l0.703-1.011l0.166-0.696l-1.48-0.373L376.418,321.265z"/>
	</g>
	<g id="path5106_1_">
		<path id="path161" inkscape:connector-curvature="0" fill="#079948" d="M370.499,335.02l-0.655,0.13l-0.285,0.908l-0.34,0.341
			l0.045,0.748h-0.827l-0.407,0.5l-0.057,1.213l2.199-0.343l0.124,0.673l1.04-0.177l0.376,0.301l0.625,0.039l0.238,0.55
			l-1.112,0.748l0.495,0.542l2.023,0.089l2.516,0.493l3.683,0.667l2.288,0.334l2.229,0.336l4.341,1.426l2.167,0.742l1.935,0.407
			l1.199-0.319l1.295,0.319l1.435,0.348l1.771,0.081l0.297-0.46l1.579,0.092l0.49,0.442l1.781,0.55l1.291,0.288l0.98,0.379
			l0.138-0.618l-0.83-0.343l0.042-1.173l0.578-0.474l-0.25-0.2l-0.249-0.717l-0.487-0.489l-0.592-0.497l-1.121,0.275v0.49
			l-3.269-0.164l-0.617-0.631l-0.869-0.709l0.319-0.705l-0.748-0.671l-0.32-0.921l-1.45,0.214l-0.742-0.598l-0.622-0.117
			l-0.17-0.212h-1.063v-0.382h-1.13l-0.037,0.63l-0.715-0.206l-0.039-0.749l-0.575-0.674l-1.124,0.168l-0.129,0.831l-0.604,0.669
			l-0.547,0.585l-0.5-0.287l-0.244-0.263l-3.271-0.074l-0.161-0.285l-2.783,0.037l-0.651-1.168l0.039-0.241l-1.115-1.098
			l-1.604,0.039l-0.379-0.363h-1.193l-0.339-0.67l-0.621,0.209l-0.291-0.333l-0.461,0.045l-0.104-0.548l-0.547,0.206l-0.628,0.421
			l-0.405,0.471l-0.258-0.351l-0.487-0.241l-0.542,0.174l-0.667-0.082L370.499,335.02z"/>
	</g>
	<g id="path5108_1_">
		<path id="path164" inkscape:connector-curvature="0" fill="#079948" d="M403.527,339.994l-0.539,0.702l-0.862,0.461l-0.919,0.359
			l-1.065-0.268l-0.823-0.255l-0.925,0.045l-0.448-0.307l0.339-0.458l0.278-0.487h4.527L403.527,339.994z"/>
	</g>
	<g id="path5154_1_">
		<path id="path167" inkscape:connector-curvature="0" fill="#079948" d="M330.553,296.583l1.589,1.221l0.529,1.002h-1.066
			l-0.806-1.069L330.553,296.583z"/>
	</g>
	<g id="path5156_1_">
		<path id="path170" inkscape:connector-curvature="0" fill="#079948" d="M335.941,303.23l-0.061,1.654l2.285,2.01l0.472-1.068
			L335.941,303.23z"/>
	</g>
	<g id="path5158_1_">
		<path id="path173" inkscape:connector-curvature="0" fill="#079948" d="M339.392,308.95l-0.106,0.601l0.458,0.467l0.413-0.712
			L339.392,308.95z"/>
	</g>
	<g id="path5160_1_">
		<path id="path176" inkscape:connector-curvature="0" sodipodi:nodetypes="cccc" fill="#079948" d="M340.685,311.261l-0.411,0.689
			l0.798-0.099L340.685,311.261z"/>
	</g>
	<g id="path5162_1_">
		<path id="path179" inkscape:connector-curvature="0" fill="#079948" d="M341.444,312.729l-0.585,1.827l1.99,2.236l1.527-0.298
			l-0.239-1.7L341.444,312.729z"/>
	</g>
	<g id="path5164_1_">
		<path id="path182" inkscape:connector-curvature="0" fill="#079948" d="M345.303,317.622l-0.696,0.761l0.828,0.595l0.522-0.595
			L345.303,317.622z"/>
	</g>
	<g id="path5166_1_">
		<path id="path185" inkscape:connector-curvature="0" fill="#079948" d="M346.297,319.344l-0.529,0.765l0.245,0.405l1.634,2.065
			l1.223,0.118l-1.17-1.882l-1.095-1.36L346.297,319.344z"/>
	</g>
	<g id="path5170_1_">
		<path id="path188" inkscape:connector-curvature="0" fill="#079948" d="M354.733,331.489l-0.526,0.637l1.108,0.356l0.886-0.235
			L354.733,331.489z"/>
	</g>
	<g id="path5172_1_">
		
			<path id="path191" inkscape:connector-curvature="0" sodipodi:nodetypes="cccccccccccccccccccccccccccccccccccccccccccccccccccccccccccccccccccccccccccccccccccccccccccccccccccccccccccccccccccccccccccccccccccccccccccccccccccccccccccccccccccccccccccccccccc" fill="#079948" d="
			M425.84,287.833l-2.055,0.07l-0.407-0.602l-0.937-0.699l-1.235-0.77l-0.703,0.464l-0.699,0.121l0.414-1.466l-1.698,0.593
			l-0.053-2.311l-0.253-0.46H417.3l-0.231-0.415l-0.533-1.482l-0.762-0.168l-0.065,0.831l-0.88,1.235l0.236-1.487l-0.82-0.461
			l-0.06,1.074l-0.585,0.289l-0.055,0.707l-0.53,0.224l-0.816,0.776l-0.118,0.291l0.186,1.114l-0.721,0.951l-0.992,0.876
			l-0.578-0.046l-0.992,0.709l-1.004,0.046l0.943,0.412l-1.878,1.36l-1.406,0.588l-1.408,0.647l-1.399,0.528l-0.52,1.657
			l-0.713,0.89l-1.108,1.061l-1.296,1.654l-0.05,0.892l-1.35,0.463l-6.494,1.313l-0.644,2.165l-0.281,2.608l-0.359,0.755
			l-1.298-0.755l-1.22-0.951l-1.229,0.761l-0.696-0.111l-0.938-0.719l-0.232-1.928l-1.235,1.522l-0.938,1.478l-0.813,1.409h-0.404
			l0.057,3.896l0.815,0.291l0.769,0.608l-0.167,0.938l-0.84,0.042l0.586,0.831l0.062,0.836l0.706,0.225l0.766,0.7l-0.71,0.905
			l1.291-0.125l-0.059,1.422l0.758-0.892l0.703,1.291l0.411,1.007l-0.464,0.412l0.111,1.187l0.893,0.294v1.167v1.366l0.634,0.18
			l-0.063,1.589l0.883-0.347l0.176-0.542l0.945,0.954l1.326,0.053l0.818-0.117l0.712-0.465l0.475,0.294l0.875-0.236l-0.055,0.523
			l0.225,2.236l0.993-0.462l0.413-0.761l1.055,0.468l0.757,0.237l0.241-0.353l1.049-0.235l0.689-0.355v-0.651l1.004,0.775h2.578
			l0.462,0.52l0.889,0.065l0.519,0.46l0.534-0.043l0.464,0.115l0.062,1.356l0.464,0.768l0.356,1.057l1.572-0.589l1.819-0.99
			l1.639-0.901l0.644-1.306l0.929-0.176l-0.872-1.118l0.176-0.948l0.401-0.755l1.117-0.192l0.531-0.412l-0.478-1.305l-0.762-0.16
			v-0.879l0.415-0.421l-0.415-0.183l0.876-0.713l0.647-0.215l0.059-1.955l1.063,0.758l0.801-0.935l1.006-0.719l0.994,0.078
			l-0.05-1.196l0.403-0.517l-1.054-0.418l0.281-2.235l0.827-0.239l-0.537-1.418l0.952-0.827l0.88-0.183l-0.233-1.35l0.938,0.706
			l2.459,0.35l0.934-0.817v-0.523l-1.297-0.134l-0.699-0.814l-1.812-0.882l-0.641-0.948v-1.48l0.292-0.588l0.457-0.118l-0.749-1.063
			l-0.404-0.457l-0.2-0.955l-1.914-1.401l0.516-0.305h0.882l-0.107-0.649l-0.645-0.415l0.17-0.933l0.882,0.221l0.472-0.529
			l-0.876-0.519l-0.713-0.958l0.17-0.646l0.827,0.593l0.944-0.06l-1.646-1.066l2.053,0.533l0.758,0.118l1.644-0.292l0.812-0.584
			l-1.105-0.776l-1.35-0.591l-0.231-0.709l1.585-0.169h1.401l0.869-0.418l0.831-0.051l0.117-0.535L425.84,287.833z"/>
	</g>
	<g id="path5174_1_">
		<path id="path194" inkscape:connector-curvature="0" fill="#079948" d="M405.58,340.326l-0.752,0.288l1.461,0.131l0.051-0.419
			H405.58z"/>
	</g>
	<g id="path5176_1_">
		<path id="path197" inkscape:connector-curvature="0" fill="#079948" d="M408.447,340.326l-0.105,0.766l0.805-0.399l-0.281-0.242
			l0.461-0.058l0.418,0.222l0.401,0.249l0.236-0.543l-0.52-0.063l0.062-0.404l-0.705,0.241l-0.072,0.295L408.447,340.326z"/>
	</g>
	<g id="path3129_1_">
		<path id="path200" inkscape:connector-curvature="0" fill="#079948" d="M464.405,186.631l-0.359,0.773l0.414,0.629l0.752-0.344
			L464.405,186.631z"/>
	</g>
	<g id="path3899_1_">
		<path id="path203" inkscape:connector-curvature="0" fill="#079948" d="M456.848,200.128l1.056,0.182l-2.572,2.554l-0.068-1.138
			L456.848,200.128z"/>
	</g>
	<g id="path3901_1_">
		<path id="path206" inkscape:connector-curvature="0" fill="#079948" d="M482.824,157.085l0.942,1.115l-0.295,0.348l-0.581,0.066
			l-0.994-1.003l-0.298,0.237v0.703l-0.411,0.479l0.468,0.533l0.47,0.77l-0.574,0.24l0.986,0.583l0.354,1.054l0.172,1.118
			l-0.172,2.367l-1.049,0.882l-0.119,0.834l-0.826,0.642l-1.696,0.638l-0.987,0.189l-0.641-1.176l0.983-0.536l-1.397-0.232
			l-0.592,0.768l0.303,1.049l0.171,0.717L476.099,170l-0.114,1.182l0.349,0.884h-0.687l-0.297,0.639l-0.653-0.173l-0.343-0.594
			l-0.593-0.344l-1.403,0.114h-0.534l-0.291,0.536l-4.614-0.067l-2.51,2.188l-0.941,0.118l0.113,0.825h-1.574l-0.069,0.771
			l-0.647,0.478l-0.699,0.88l-1.052,0.348l-1.099,0.706l0.876,0.288l0.052,0.658l1.053-0.523l0.114,0.291l-0.226,0.877l0.938,0.124
			l-0.765,0.476l0.938,0.396l0.457,0.606l-0.741,0.636l0.153,1.07l0.647,0.231l-0.34,1.348h1.049l0.238-1.23l0.344,0.585
			l1.053,0.284l0.997-0.17l-0.468-1.406l0.817-0.351l-0.167-2.068h0.699l0.471-0.587l-1.053-0.284l-0.892-0.894l-0.52-0.636
			l0.758-0.262l-0.049-0.512l-1.941,0.115l-1.167-1.299l1.347,0.114l0.649-0.412l0.579,0.177l0.408,0.583l0.877-0.047l0.179-0.894
			l1.05-0.063l1.87-0.221l1.065,0.118l0.28-0.536l0.766,0.302l0.516-0.589l1.641-0.188h1.354l-0.18,0.415l1.229-0.167l-0.405,1.236
			l0.236,1.173l0.692,0.76l1.354,0.6l0.513-0.402l0.242-0.907l0.758-0.476l0.592-0.518l0.588-0.182l-1.003-0.883l-0.063-1.235
			l0.768,0.348l1.105,0.706l1.529,0.233l1.049,0.054l0.706-0.879l0.523-0.415l0.173,1.118l0.818,0.176l0.063-1.345l1.286-0.067
			l0.055-0.823l0.48-0.24v1.364l0.465,0.232l0.464-0.057l0.18-0.844l0.813-0.753l0.125-0.412l-0.7-0.824l-0.356-0.709l0.063-2.53
			l-1.402-2.004l-0.056-0.904l0.705-0.285l0.629,0.118l-0.291-0.89l-0.752-0.476l0.752-0.352l-0.288-1.345l-0.529-0.773
			l-0.925-1.302l-1.181-0.897L482.824,157.085z"/>
	</g>
	<g id="path3903_1_">
		<path id="path209" inkscape:connector-curvature="0" fill="#079948" d="M471.883,175.359l0.886,0.596l0.702,0.599l0.351,0.807
			l-0.419,1.067l-1.108,0.348l-0.993-0.518l-1.229,0.402l-0.169,1.188l-0.884,0.879l-0.823-1.007l-0.823-0.398l-0.226-0.894
			l-0.115-0.709l0.818-0.234l-0.177-0.773l0.875-0.158l0.706,0.344l0.766-0.344l0.944-0.365L471.883,175.359z"/>
	</g>
	<g id="path3905_1_">
		<path id="path212" inkscape:connector-curvature="0" fill="#079948" d="M468.268,131.897l1.457,1.122l1.06,0.23l1.337,1.887
			l1.741,1.596l0.828,0.342l1.121,1.076l0.516,0.351l0.892,0.41l0.69,1.069l1.762,1.114l1.292,1.188l-1.997-1.011l-0.7-0.707
			l-0.114,0.76h-0.997v0.712l0.226,0.77l0.478,0.644l1.163,0.833l1.114,0.943l2.063,1.767l-1.885-1.244l-0.815,0.123l-0.117,0.884
			l-0.12,0.352l-0.887-0.767l-0.513-0.412l0.235-1.063l-0.762-0.472l-0.354-0.77l-0.414-0.224l0.238-0.482l-1.107-0.76l-1.112-1.172
			v-0.722l-0.294-0.227l0.059-0.364l-0.414-0.881l-0.592-0.351l-0.347-0.941l-0.808-0.706h-0.471l-0.543-0.886l-0.755-0.242
			l-0.99-0.412v-0.764l-0.471-0.465l0.059-0.477h-0.522L468.268,131.897z"/>
	</g>
	<g id="path3907_1_">
		<path id="path215" inkscape:connector-curvature="0" fill="#079948" d="M481.659,155.479l0.764,0.837l-0.99,0.06l0.052,0.643
			l-0.751,0.182l-0.595-1.131l0.12-0.696l-0.815-0.472l-0.289-0.76l0.401-0.833l-0.242-0.884l0.825,0.412l0.595,0.178l0.575-0.53
			l-0.343-1.066l0.11-0.704l-0.637-0.529l0.12-0.763l-0.702-0.351v-0.599l1.108,0.292l0.935,0.76l1.692,0.659l1.281,0.766
			l1.706,0.709l1.229,0.415l1.169-0.361l-0.11,0.713l0.873,0.479l0.758-0.534l-0.528,0.703l0.591,0.77l0.415,0.598h-2.873
			l-0.402,0.409l-0.12,0.944l0.187,0.937l-0.945-0.17l-0.932-1.005l-1.71-0.702l-1.687-0.244L481.659,155.479z"/>
	</g>
	<g id="path3909_1_">
		<path id="path218" inkscape:connector-curvature="0" fill="#079948" d="M491.261,151.359l0.644,0.536l0.877-0.646l1.516-1.248
			l-0.053-0.764l-1.405,0.285l-0.467,0.304l-0.232,1.067L491.261,151.359z"/>
	</g>
	<g id="path3911_1_">
		<path id="path221" inkscape:connector-curvature="0" fill="#079948" d="M497.284,146.703l0.072,0.944l-0.593,0.291l0.877,0.242
			l0.18-0.897L497.284,146.703z"/>
	</g>
	<g id="path3913_1_">
		<path id="path224" inkscape:connector-curvature="0" fill="#079948" d="M495.882,148.588l-0.99,0.653l0.232,0.649l0.758-0.125
			l0.297-0.463l0.295-0.476L495.882,148.588z"/>
	</g>
	<g id="path3915_1_">
		<path id="path227" inkscape:connector-curvature="0" fill="#079948" d="M492.496,152.898l-0.183,0.479l1.058,0.163l-0.13-0.415
			L492.496,152.898z"/>
	</g>
	<g id="path3917_1_">
		<path id="path230" inkscape:connector-curvature="0" fill="#079948" d="M480.021,164.871l0.539,0.057l-0.068,1.473l-0.578-0.06
			L480.021,164.871z"/>
	</g>
	<g id="path3919_1_">
		<path id="path233" inkscape:connector-curvature="0" sodipodi:nodetypes="ccccccccccccccccc" fill="#079948" d="M406.955,345.197
			h-1.166l-0.291,0.342l0.563,0.514l0.833,0.32l0.571,0.451l0.354,0.428l0.13,0.687l0.526-0.473l0.557-0.504l0.588-0.438
			l0.563-0.256l-0.291-0.659l-0.653-0.445l-0.615-0.298h-0.986L406.955,345.197z"/>
	</g>
	<g id="path3921_1_">
		<path id="path236" inkscape:connector-curvature="0" fill="#079948" d="M408.691,347.439l-0.17,0.59l0.514,0.135l-0.217-0.698
			L408.691,347.439z"/>
	</g>
	<g id="path3923_1_">
		<path id="path239" inkscape:connector-curvature="0" fill="#079948" d="M412.669,345.877l-0.504,0.199l-0.107,1.488h-1.376
			l1.226,0.768h0.873h0.522l0.274-0.394l0.464-0.346l-0.173-0.827l0.521-0.238l-0.086-0.883l-0.556-0.05L412.669,345.877z"/>
	</g>
	<g id="path3925_1_">
		<path id="path242" inkscape:connector-curvature="0" sodipodi:nodetypes="ccccccccccccccccccc" fill="#079948" d="
			M416.941,346.233l-0.409-0.304l-0.325,0.068l-0.227,0.522l-0.993,0.5l-0.265,1.451l0.315,0.294l2.72,0.033l0.422-0.419h1.227
			l0.262-0.536l0.836,0.217l-0.164-0.442l-1.996-1.068l-0.15-1.298l-0.55-0.062l0.147,0.65l-0.117,0.435L416.941,346.233z"/>
	</g>
	<g id="path3927_1_">
		<path id="path245" inkscape:connector-curvature="0" sodipodi:nodetypes="cccccccccccccccccccccccc" fill="#079948" d="
			M419.542,346.053l1.114,0.71l-0.614,0.545l-1.671,1.04l2.05-0.147l0.494-0.464l0.823,0.344h1.777l1.364-0.292l0.134-0.438
			l-0.592-0.389l-0.124-0.285l-0.051-0.604l0.224-0.621l-1.52,0.15l-0.32,0.451l-0.441-0.514l-0.729,0.102l-0.121,0.638
			l-0.844-0.932l-0.664-0.301l-0.947,0.089l-0.023,0.644L419.542,346.053z"/>
	</g>
	<g id="path3929_1_">
		
			<path id="path248" inkscape:connector-curvature="0" sodipodi:nodetypes="ccccccccccccccccccccccccccccccccccccccccccccccccccccccccccccccccccccccccccccccccccccccccccccccccccccccccccccccccccccccccccccccccccccccccccccccccccccccccccccccccccccccccccccccccccccccccccccccccccccccccccccccccccccccccccccccccccccccccccccccccccccccccccccccccccccccccccccccccccccccccccccccccccccccccccccccccccccccccccccccccccccccccccccccccccccccccccccc" fill="#079948" d="
			M412.316,424.923l-0.768,0.579l-0.991,0.287l-0.059,1.075l0.889,0.398l1.337,0.063l0.758,0.65l1.756,0.879l5.099-0.045
			l0.285-0.523l1.578-0.673l2.281-1.047l2.171-0.195l1.411-0.471l7.25,0.068l0.29-0.351l0.298,0.242l1.288,0.229l0.288-0.587h0.715
			l1.114-1.484l1.635-0.392l1.509-0.366l1.413-0.831l2.043-0.872l3.039,0.057l0.654-0.315l1.099-0.058l0.777-0.403l1.392,0.125
			l0.354-0.474l1.278-0.124l0.238-0.4l1.922-0.417l3.402-0.178l1.065-0.43l1.398-0.344l1.232,0.414l1.047,0.354l4.092,0.05
			l1.398,0.307l0.124,0.706l-0.124,0.474l-0.929,0.396l1.468,0.259l0.82,0.294l0.347,1.17l0.187,1.124l0.807,0.523h0.593
			l-0.296-0.766l0.821-0.23l0.755-0.706l1.53-0.534l1.35-1.017l1.454-1.174l1.696-1.35l-0.405,1.476l-1.291,1.307l-1.571,1.645
			l-1.817,1.169l1.571-0.401l1.523-0.696l1.177-1.013l0.646,0.467v0.549l-0.936,0.458l-0.888,0.996l-4.444,1.423l1.286,0.052
			l3.275-0.934l1.595-0.658l1.044,0.069l0.594,1l-0.698,1.248l0.234,1.053l1.324,0.602h1.474l0.816-0.406l3.399,0.171l0.873-0.543
			l1.766-1.049l1.337-0.899l-0.351,0.723l-0.48,0.403l1.121,0.064l1.876-0.291l0.232-0.245l0.875-0.248l0.77-0.63l1.513-1.018
			l1.229-0.526l1.391-0.35l3.119-1.468l1.232-1.301l3.922-4.083l3.269-2.709l3.445-3.578l4.399-4.096l0.175-0.696l2.171-2.36
			l0.17-0.993l0.941-0.716l0.765-1.124l0.983-1.226l-0.059-1.596l0.71-0.892l-0.117-0.944l1.114-1.004l0.353-1.231l0.284-1.472
			l2.104-1.95l-2.451,1.411l0.066-1.411l-0.475-1.066l-0.35-1.003l-0.883-0.536l0.046-1.34l0.589-0.537l-0.229-1.764l-0.579,0.705
			l-0.525-0.653l-0.227,1.124l-0.951-0.592l0.122-0.944l0.829-0.05l-0.349-2.257l-0.706-0.472l0.059-1.308l0.455-0.752l-0.634-0.3
			l-0.468,0.486l-1.104-0.421l-0.523-0.641l-0.771-0.843l-1.703-0.593l-0.238-0.584l-0.111-1.588l0.592-1.713l0.063-2.825h-0.54
			l-0.218-1.188l-0.072-1.413l0.477-0.404l-0.52-0.777v-1.122l0.52-0.645l0.354-0.637l-0.762-1.196l-1.222-0.993l-1.184,0.297
			l-0.634,0.837l-0.356-2.072l-0.647-0.316v-0.869l0.349-0.423l0.111-3.196l-0.29-0.398l-0.589-0.49l0.589-0.7l-0.17-0.761h-0.769
			l0.065-2.543l-0.474-0.585l-0.229-0.714l-1.115,1.066l-1.173,3.419l-0.586,1.706l-1.107,0.948h1.229l-0.815,1.179l-0.59,0.599
			l0.287,0.896l-0.93,1.882l-0.586,3.125l-0.644,3.242l-1.34,3.37l-1.078,1.179l-0.224,1.001l-0.924,1.408l-1.877,0.488
			l-1.526-0.073l-1.046-0.47l-1.056-1.399l-1.464,0.049l-0.707-0.412l-1.11-0.411l-1.693-1.429l-1.885-0.274l-1.344-0.823
			l-0.925-1.007l-1.164-0.532l-1.997-1.011l1.631-0.475l1.65-1.656l0.05-1.416l-0.119-2l1.285-0.534l1.066-0.468l0.742,0.287
			l0.313-1.523l0.923-0.948l0.124-1.235l-1.416-0.647l-0.686,0.647l0.17,0.533l-1.182,0.396l-0.29-0.575l-1.104-0.288l-0.529,0.631
			h-1.929l-1.183-0.285l-1.685,0.119l-0.644-0.952l-0.238-0.539l-1.29,0.539l-1.399-0.755l-1.583-0.539l-1.686-0.483l-1.469,0.418
			l2.799,0.899l0.181,1.34v0.771l-1.586,0.176l-0.465,0.661l-1.868-0.072l-1.638-0.17l-0.762,0.354l-0.305,0.815l-1.101,0.707
			l-1.347,0.478l-0.114,1.065l-0.402,1.173l-1.602,0.363l-0.281,1.229l-0.644,1.242l-0.641,1.059l0.816,0.532v0.704l-0.928,0.536
			v0.764l-0.595-0.641l-1.115,0.53l-0.921-0.771l-1.599,0.065l-0.699,1.104l-0.35-1.294l-0.759-0.814l-1.631-1.599l-1.003-0.107
			l-0.575-0.546l-0.704-0.059v-0.418l-0.768,0.418l0.412,1.192l-1.052,0.214l-0.298-0.763l-0.577,0.547l-0.303-0.484l-0.937-0.177
			l-0.066,1.418l-0.454,0.647l-0.529,0.291l-0.347-0.765l-0.945-0.291l-0.516,0.948l-0.84,1.064l0.716,0.515v0.892l-0.641,0.058
			l0.058-0.691l-1.047,0.125l-0.348,0.875l-1.355,0.284l-0.053-0.402l-0.181,0.945l0.063,1.762l0.528,0.062v0.769h-0.823v0.471
			l-1.354,0.176l-0.28-0.297l-0.941-0.231l-1.511,0.765l0.344,0.885l1.229,0.585l0.47,0.654l-0.295,0.766l-0.996-0.111l-0.176,0.358
			l0.056,0.89l-0.812-1.248l-0.879-0.994l-0.294-1.894l-0.879,0.645v1.001l-0.817,0.248l-0.935,0.474l-0.997,0.581l0.06,2.642
			l0.996,0.121l-0.703,0.892l-0.764,0.647l-0.767,0.114l-0.698,1.242l-1.994,1.412l-2.334,1.771l-2.64,0.467l-2.693,0.7v-0.565
			l-1.403,0.464l-1.692,0.89l-1.696,0.698l-2.043,0.654h-2.355l-1.508-0.174l-1.879,0.879l-1.987,1.465l-2.699,1.547l-1.586,1.35
			l-0.229-1.886l-1.096,0.719l-0.372,0.819l-0.049,1.827l-0.059,1.403l-0.765,1.774l0.412,1.598l0.539,0.948l0.343,0.818
			l2.219,2.234h-1.51l-0.359-0.758l-1.121,0.176v1.121l0.35,1.423l0.596,1.117l1.356,1.761l0.691,0.827l0.478,0.777l0.753,1.053
			l0.294,1.309l1.173,0.999l0.113,1.172l0.181,1.191l1.163,0.703l0.873,1.765l0.765,0.648L412.316,424.923z"/>
	</g>
	<g id="path3931_1_">
		<path id="path251" inkscape:connector-curvature="0" fill="#079948" d="M473.293,355.491l0.88,0.239v0.533l-0.826,0.935
			l-0.298,0.879h-0.859l-0.948-0.699l-0.522-0.356l-0.223,0.526l-0.702,0.245l-0.997-0.058l0.575-1.118l0.764-0.117v-0.77
			l1.22,0.226l-0.18,0.824l0.603-0.869l0.646,0.045l0.164,0.592l0.759-0.226l0.059-0.411L473.293,355.491z"/>
	</g>
	<g id="path3933_1_">
		<path id="path254" inkscape:connector-curvature="0" fill="#079948" d="M492.598,362.925l-0.05,0.647l-0.055,0.471l-0.48,0.166
			l0.298,0.543l-0.582,0.231l-0.533-0.355l0.242-1.238L492.598,362.925z"/>
	</g>
	<g id="path3935_1_">
		<path id="path257" inkscape:connector-curvature="0" fill="#079948" d="M512.63,346.689l0.046,1.658h1.231l-0.347-1.178
			L512.63,346.689z"/>
	</g>
	<g id="path3937_1_">
		<path id="path260" inkscape:connector-curvature="0" fill="#079948" d="M555.813,368.639l1.229,1.306l-0.171,0.929l0.523,0.599
			l0.053,1.298l-0.936,0.064l-0.866-1.235L555.813,368.639z"/>
	</g>
	<g id="path3939_1_">
		<path id="path263" inkscape:connector-curvature="0" fill="#079948" d="M503.309,340.614l0.131-1.231l-0.655-1.06l-0.813,0.124
			l-0.53,0.351h-0.876l-0.48,0.817l-0.692,0.999l-0.582,0.543l-0.773,1v0.647l2.646-0.281l0.521-0.543l0.709-0.425L503.309,340.614z
			"/>
	</g>
	<g id="path3941_1_">
		<path id="path266" inkscape:connector-curvature="0" fill="#079948" d="M509.75,344.347l-1.869-1.477l0.114-1.308l-0.588,0.131
			l-0.174-0.355l-0.993-0.063l0.11-0.529l1.053-1.123l-1.693,1.182l-1.987-0.107l-0.241-1.475l0.589-0.121l-0.48-0.48l-0.579-0.601
			h-0.755l0.222-0.402h2.987l-0.759-0.716l-0.819-1l-0.641,0.536l-0.063-0.89l-1.056-0.698l-0.754-0.824l0.114-1.66l-0.642-0.287
			v-1.069l-0.768-0.227l-0.866-0.591l-1.694-0.769l-1.885-0.653l-1.811-0.522l-1.053-0.483l-2.465-0.063l-0.564-0.703l-1.242-0.059
			l0.297-0.898l0.406-0.458h-1.337l-0.471-0.409h-1.412l-1.118-0.656l0.252-0.709l0.336-0.831l0.063-1.353l-0.522,0.725
			l-0.877,1.408l-0.474,0.412l0.062,1.183l-0.117,0.814l-0.581,0.654l-1.17-0.17l-0.478-0.487l-0.062-1.056l-0.229-0.281h0.582
			l-0.582-0.602l0.172-0.471l-0.688-0.412l-1.592-0.95l-0.932-0.292l0.117-0.765l0.814-0.222h1.921l0.54,0.634l0.293-0.591
			l0.526-0.997l0.7-0.18h1.464h0.876l0.472-0.18l0.231-0.582l-0.471-0.598l-1.464,0.232l-1.167,0.484h-1.929l-1.351-0.308
			l-0.349-0.817l-0.412-0.418l-0.176-0.411l0.176-0.536l-0.582-0.523l-1.581,0.104l-0.229-0.398l-0.935,0.35l-0.239,0.533
			l-0.876-0.641l0.238-0.716l0.936-0.762l0.344-0.768l0.944-0.645l0.702-0.118l0.582-0.483l0.401-0.647l1.056-0.405l0.472-0.425
			l1.468,0.288l0.987,0.307l2.287,0.53l1.053,0.48l0.866,0.231l0.12,1.06l0.592,1.055l-0.35,1.069l-0.359,1.641l0.121,1.549
			l0.591,0.706l0.638,0.994l0.235-1.111l0.426,1.052l-0.073,0.706l0.354,0.713l0.921,0.595h1.012l0.982-0.425l1.183-0.398
			l0.407-0.602l0.467-1.425l0.525-0.16l0.411-1.359l0.887-0.586l1.399-0.307l0.634-0.059l0.468-0.232l0.067-0.935l-0.532-0.304
			l0.768-0.346l0.93-0.363l0.64-0.775l1.178,0.251l1.81,0.645l1.705,0.892l0.999,0.585l1.34,0.484l1.392,0.398l2.938,0.651
			l4.153,1.359l4.04,1.056l2.856,1.291l1.302,1.249l1.401,1.068l0.817,0.993l0.404,1.605v1.049l1.413,0.06l1.063,0.602l1.271,0.443
			l1.354,0.426l0.585,1.248l0.052,0.758l-0.284,0.354l-2.22,0.049l-0.65,0.54l0.471,1.716l0.814,2.011l1.464,0.342l0.706,1.305
			v1.118l0.344,1.362l1.296-0.063h0.831l-0.418,0.707l0.058,0.886l1.288-0.178l0.461,0.363l-0.751,0.063l0.231,0.807l1.755,1.142
			l0.108,0.752l-0.922,0.541l-0.425,0.821l-0.751-1.362l-0.766-0.233h-1.523l-3.575-0.052l-0.223-1.138l-0.602-0.347l-0.104-0.647
			l-0.932-0.238l-0.241-0.817l-0.632-0.532l0.059-1.013l-0.702-1.354l-0.887-0.816l-0.928-0.125l-1.464-0.405l-1.232-0.543
			l-1.521,0.723l-0.999-0.238l-0.354-0.249l0.713,1.483l-0.713,0.296l-0.755,0.117l-0.235,0.589l0.644,0.411l-1.457,0.176
			l-1.063,0.419l0.997,0.707l0.414,0.708l-0.466,0.762l-0.766,0.294l-0.699,0.895l-0.591,0.306l-0.399-0.369l-1.001-0.063
			l-0.18-0.879l-0.467,0.242l0.055,0.938l-0.875-0.063l-0.584,0.637l-0.821-0.944L509.75,344.347z"/>
	</g>
	<g id="path3943_1_">
		<path id="path269" inkscape:connector-curvature="0" fill="#079948" d="M411.995,325.452l0.375,0.102l-0.104,0.729l0.585,0.246
			v0.562l-0.866,1.202l-0.319-0.082L411.995,325.452z"/>
	</g>
	<g id="path3945_1_">
		
			<path id="path272" inkscape:connector-curvature="0" sodipodi:nodetypes="cccccccccccccccccccccccccccccccccccccccccccccccccccccccccccccccccccccccccccccccccccccccccccccccccccccccccccccccccccccccccccccccccccccccccccccccccccccccccccccccccccccccccccccccccccccccccccccccccccccccccccccccccccccc" fill="#079948" d="
			M449.797,303.152l0.298,0.657l0.556,0.311l-0.071,0.703l-0.308,0.558l-0.582,0.923l-1.01,0.817l-0.696,1.444l-1.111,0.51
			l-1.373,0.082l-0.673,0.657l-1.935-0.216l-0.415-0.467l-0.553-0.242l-0.313-0.176h-2.003l-0.197,0.536l-3.553-0.03l-0.463-0.555
			l-0.821,0.049l-0.114,0.562l-2.811-0.144l-0.398-0.448l-0.624,0.154l-0.504,0.761l-0.695,0.739l-0.615,1.085l-0.196,0.862
			l0.082,0.981l0.401,1l0.916,0.994l0.987,0.778l0.44,0.994l0.582,0.301h1.169l0.452-0.301l0.375-0.673l0.317-0.798l0.592-0.579
			l0.925-0.082l0.941,0.082l0.213,0.376l0.816-0.687l0.486-0.228l0.484,0.169l0.232-0.454l1.954-0.056h0.438l0.297-0.647
			l0.696,0.039l0.529,0.402l0.141,0.506l-0.104,0.748l-0.687,0.207l-0.968-1.324l-0.063,0.869l-0.869,0.484L440.009,316
			l-0.575,0.624l-0.5,0.948l-1.049,0.569l-0.799,0.084l-1.34,0.409l-0.731,0.572l-0.553-0.222l0.812,1.328l0.683,0.483l0.993,1.144
			l0.317,0.719l0.797,0.484l0.779,0.683l0.325,0.631l-0.644,0.935l-0.32,0.658l0.595,0.768l0.369,0.996l0.974,0.65l0.4,0.2
			l1.528-0.65l0.109,0.542l-0.759,0.376l-0.89-0.268l-0.428,0.22l0.611,0.924h0.006h0.762l0.372,0.356l0.229,0.422l-0.71,0.362
			l-0.208,0.81l0.098,0.707l-0.843-0.624l0.042-1.153l-0.312-0.34l-0.29,0.287l0.184,1.451l-0.33,0.34l-1.047,0.778h-0.61
			l0.552-1.667v-0.788l0.915-0.199l0.333,0.085l0.18,1.483l-0.019-0.025l0.464,1.078l-0.768,0.496l-0.044,0.587l0.468,0.398
			l0.91-0.72l0.958-0.68l0.074-0.349l-1.592,0.279l-0.475-1.167l-0.17-1.35l0.863-0.856l-0.611-0.935l-0.768,0.491l-0.436,0.326
			l-0.614,0.144l-1.053,0.706v0.526l-0.349,0.683l-0.76-0.446l-0.911-0.104l-0.726-0.233l0.517-0.366l0.036-1.457l0.026-0.784
			l-0.788-0.32l-0.965-0.605l-0.698-0.925l-0.177-0.823l0.379-0.5l0.114-1.007l-0.075-0.572l0.517-0.856l-0.35-0.46l-1.583,0.373
			l-0.888,0.48l-0.726,0.673l-0.144,0.508l0.611,0.623l0.067,1.171l-0.244,5.674l-0.432,0.294l0.089,1.085l0.283,0.615l-0.167,0.823
			l-0.728,0.088l-1.523,0.533l-0.827,0.215l-0.49-0.68l-0.529-0.047l-0.118-1.139l0.327-0.82l0.265-0.344l-0.213-1.057l0.589-0.575
			l-0.134-2.333l0.516-0.205l-0.516-0.798l-0.569-0.593l0.213-0.764l-0.478-0.262h-0.817l-0.611,0.458l-0.319-0.114l0.104-1.263
			l-0.547-0.385l0.115-1.876l1.602-1.484l-0.049-1.625l0.752-0.647v-0.889l-0.487-0.294l-0.147-0.817l0.759-0.356l-0.124-0.494
			l0.418-0.118l-0.082-0.444l0.32-0.448l0.546-0.451h0.565l0.199-1.337l-0.435-0.455l0.063-1.187l0.735-0.719l0.382-1.323
			l0.373-1.546l0.735-0.265l1.405-0.144l0.35-0.5l0.639-1.444h1.9l0.288,0.52h0.795l0.353,0.382l1.226,0.215l1.114,0.183
			l1.605-0.032l0.49,0.284l0.859,0.5l0.696-0.321l1.166-0.343l0.117-0.242l0.828,0.383l1.69,0.092l0.702-0.331l1.144-0.48
			l0.703-0.647l0.79-0.624l0.782-0.938L449.797,303.152z"/>
	</g>
	<g id="path3947_1_">
		<path id="path275" inkscape:connector-curvature="0" fill="#079948" d="M430.354,335.941l-0.048,0.787l-0.354,0.33l0.107,0.339
			l0.341-0.169l0.247-0.311l0.196-0.135l-0.074-0.729L430.354,335.941z"/>
	</g>
	<g id="path3949_1_">
		<path id="path278" inkscape:connector-curvature="0" fill="#079948" d="M441.143,316.098l-0.132,0.637l-0.13,0.396l-0.363,0.199
			l0.206,0.373l0.455-0.229l0.313-0.356L441.143,316.098z"/>
	</g>
	<g id="path3951_1_">
		<path id="path281" inkscape:connector-curvature="0" fill="#079948" d="M442.058,316.598l-0.14,0.588l0.376,0.405l0.369-0.099
			l0.149-0.327l0.759-0.117l0.123-0.226l-0.264-0.206L442.058,316.598z"/>
	</g>
	<g id="path3953_1_">
		<path id="path284" inkscape:connector-curvature="0" fill="#079948" d="M452.694,295.099l-1.053-0.601l-0.114,0.769l0.232,0.834
			l0.935,0.585l0.638-0.585L452.694,295.099z"/>
	</g>
	<g id="path3955_1_">
		<path id="path287" inkscape:connector-curvature="0" fill="#079948" d="M457.501,290.843l0.631,0.772v0.585l-0.177,0.649
			l-1.046,0.656l0.057-1.891L457.501,290.843z"/>
	</g>
	<g id="path3957_1_">
		<path id="path290" inkscape:connector-curvature="0" fill="#079948" d="M426.096,346.308l0.822,0.628l-0.669,0.526l-0.527-0.298
			L426.096,346.308z"/>
	</g>
	<g id="path3959_1_">
		<path id="path293" inkscape:connector-curvature="0" fill="#079948" d="M429.465,346.001l-1.226-0.069l-0.529,0.54l0.146,0.581
			l-0.471-0.146l-0.035,0.346l0.562,0.455l2.988-0.082l0.376,0.408l1.078-0.127l0.401,0.514l0.478-0.576l0.48,0.063l0.128-0.316
			h2.82l0.432-0.445l1.711,0.069l0.772-0.376l0.422-0.366l0.351-0.536l-0.906,0.091l-0.677,0.379h-0.468l-0.468,0.433l-0.938-0.111
			l-0.14-0.321l-1.586-0.028l-0.438,0.499l-0.821-0.041l-0.329-0.363h-0.702l-0.348-0.396l-0.5-0.121l-0.486-0.392l-1.854,0.11
			L429.465,346.001z"/>
	</g>
	<g id="path3961_1_">
		<path id="path296" inkscape:connector-curvature="0" fill="#079948" d="M435.901,353.633l-0.298,0.729l-0.783,0.267l0.783,0.21
			l0.978-0.06l0.5-0.559l-0.245-0.231L435.901,353.633z"/>
	</g>
	<g id="path3963_1_">
		<path id="path299" inkscape:connector-curvature="0" fill="#079948" d="M429.43,351.099l-1.08-1.156l-2.549-0.169l-0.693,0.581
			l-0.911-0.026l-0.351,0.412l0.936,0.829l1.932-0.098l0.259,0.386h0.531l1.462,1.563h1.634l0.265-0.313l0.413-0.072l0.397-0.344
			l-1.575-1.574L429.43,351.099z"/>
	</g>
	<g id="path4124_1_">
		<path id="path302" inkscape:connector-curvature="0" fill="#079948" d="M454.494,323.818l-0.046,0.545l-0.52,0.292v0.562
			l0.369,0.075l0.138,0.602l0.47,0.053l0.073,0.212l0.514,0.026l0.401,0.412h0.407l0.341,0.474l0.389-0.494h0.425l0.313-0.349
			l0.518,0.041l0.262-0.395l0.567-0.415l-0.137-0.438l-0.379-0.31h-0.348l-0.329-0.363l-0.553-0.48L454.494,323.818z"/>
	</g>
	<g id="path4126_1_">
		<path id="path305" inkscape:connector-curvature="0" fill="#079948" d="M462.954,325.272l-0.577,0.255l0.201,0.281l-0.491,0.295
			l0.202,0.45l0.912-0.45l0.487-0.351L462.954,325.272z"/>
	</g>
	<g id="path4128_1_">
		<path id="path308" inkscape:connector-curvature="0" fill="#079948" d="M453.887,319.52l-0.085,1.164h-0.576l0.21,0.467h0.948
			l-0.027-1.598L453.887,319.52z"/>
	</g>
	<g id="path4130_1_">
		<path id="path311" inkscape:connector-curvature="0" fill="#079948" d="M453.678,318.177l0.085,0.493l0.67,0.045l0.152,0.419
			h-3.098v-0.916L453.678,318.177z"/>
	</g>
	<g id="path4132_1_">
		<path id="path314" inkscape:connector-curvature="0" fill="#079948" d="M451.156,318.503l-1.194-0.075l-0.216-0.379h-1.286
			l-0.277-0.622l-0.386,0.83l-0.44-0.078l-0.091,0.373l-0.292,0.494l0.082,0.418l1.945-0.173l0.453-0.366l0.915-0.04l0.05-0.297
			L451.156,318.503z"/>
	</g>
	<g id="path4134_1_">
		<path id="path317" inkscape:connector-curvature="0" fill="#079948" d="M460.962,315.967l0.37,0.664l0.453,0.336h0.465
			l0.284,0.291h0.664l-0.748,0.17l-0.046,0.275l-1.356-0.069l-0.539,0.585l-0.21-0.562l-0.539-0.023l0.075-0.422L460.962,315.967z"
			/>
	</g>
	<g id="path4136_1_">
		<path id="path320" inkscape:connector-curvature="0" fill="#079948" d="M459.763,312.584l1.046-0.039l0.527,0.625l-0.196,0.755
			h-0.671l-0.454-0.043l0.039-0.755h-0.291V312.584z"/>
	</g>
	<g id="path4138_1_">
		<path id="path323" inkscape:connector-curvature="0" fill="#079948" d="M458.44,311.46l-0.207,0.582l0.541,0.085l0.359-0.209
			L458.44,311.46z"/>
	</g>
	<g id="path4140_1_">
		<path id="path326" inkscape:connector-curvature="0" fill="#079948" d="M461.92,302.38l0.614-0.68l0.082-0.399l-0.532-0.098
			l-0.255,0.667l-0.578,0.621l-0.213,0.588l-0.488,0.83l-0.251,1.212l-0.166,0.661l0.041,1.01l0.577,0.039l0.211,0.654l-0.074,1.02
			l0.074,0.575h0.249l0.167,0.294v0.542l-0.455,0.379l-0.038,0.745l0.397,0.497l1.589,1.464l-0.21-0.918l-0.49-1l-0.048-2.376
			l2.114,0.091l0.572,0.337l0.787,0.193l0.369,0.124l-0.618-0.778l-0.12-0.807l-1.328,0.056v-0.762l0.42-0.687h0.78l0.171-0.974
			l0.418-0.245v-1.007l-0.543-0.284l-1.116,0.114l-0.344,0.373l-0.487,0.432l-0.461,0.405l0.134,0.425l-0.467,0.5l-0.487,0.7
			l-0.209,0.539l-0.497-0.657l0.246-0.801l0.545-0.542l0.327-0.873l0.245-0.5v-0.827L461.92,302.38z"/>
	</g>
	<g id="path4142_1_">
		<path id="path329" inkscape:connector-curvature="0" fill="#079948" d="M459.763,310.009l0.54,0.046l0.124,0.909h-0.504
			L459.763,310.009z"/>
	</g>
	<g id="path4144_1_">
		<path id="path332" inkscape:connector-curvature="0" fill="#079948" d="M463.855,302.035l-0.28-0.464l-0.092-1.461l0.372-0.203
			l0.497-0.418l0.373-0.255l0.291,0.255l0.291,0.376v0.794l-0.5,0.369v0.412l-0.402-0.039L463.855,302.035z"/>
	</g>
	<g id="path4146_1_">
		<path id="path335" inkscape:connector-curvature="0" fill="#079948" d="M471.473,317.657l0.168-0.445h0.542l0.032,0.883
			l-0.777,0.83l-0.958-0.04l-0.284-0.382l-0.375-0.326l-0.118-0.246l0.627,0.164l0.36-0.503L471.473,317.657z"/>
	</g>
	<g id="path4148_1_">
		<path id="path338" inkscape:connector-curvature="0" fill="#079948" d="M474.834,314.17L474,314.291l-0.578-0.657l-0.553,0.124
			l0.879,1.488l0.416,0.308l1.045-0.673L474.834,314.17z"/>
	</g>
	<g id="path4150_1_">
		<path id="path341" inkscape:connector-curvature="0" fill="#079948" d="M472.68,310.539h-1.327l1.167,0.673l0.575,0.627
			l0.823-0.418l1.235,0.039h0.961l-0.961-0.667l-0.615-0.582l-1.116,0.049l0.039,0.566L472.68,310.539z"/>
	</g>
	<g id="path4152_1_">
		<path id="path344" inkscape:connector-curvature="0" fill="#079948" d="M496.382,316.16h-3.81l1.159,0.438l0.834-0.13l0.326,0.425
			l0.905,0.075l0.337-0.425h0.918L496.382,316.16z"/>
	</g>
	<g id="path4154_1_">
		<path id="path347" inkscape:connector-curvature="0" fill="#079948" d="M493.114,312.339l-0.856-0.167h-0.634l0.706,0.486
			l0.118,0.762l0.72-0.627l0.241,0.627l0.549-0.794l-0.844,0.169V312.339z"/>
	</g>
	<g id="path4156_1_">
		<path id="path350" inkscape:connector-curvature="0" fill="#079948" d="M487.459,332.012l-0.48,0.39l-0.522,0.82l0.595,0.255
			l0.366,0.288l-0.84,0.729l0.166,0.5l0.157,0.418l0.792,0.086l0.907-0.315l-0.156-0.882l-0.755-0.62l0.386-0.465l0.159-0.82
			L487.459,332.012z M486.901,335.411h-0.121l0.034,0.032h0.087V335.411z M486.814,335.443l-0.704,0.104l-0.49,0.766l0.049,1.443
			l1.814-0.914l-0.203-0.624L486.814,335.443z"/>
	</g>
	<g id="path4161_1_">
		<path id="path353" inkscape:connector-curvature="0" fill="#079948" d="M475.939,339.195l0.046,1.537l-0.457,0.761l-0.242,1.288
			l-1.25,0.16L474,341.7l0.624-0.037l-0.506-0.297l0.669-0.713L475.939,339.195z"/>
	</g>
	<g id="path4163_1_">
		<path id="path356" inkscape:connector-curvature="0" fill="#079948" d="M458.27,345.203h-1.941l-0.46,0.579l-1.515-0.035
			l-0.635,0.325l-1.362-0.12l-0.49,0.539l-0.755-0.089l-0.293,0.553h-0.704l-0.741,0.288l-0.875,0.283l-1.73,0.971l-2.611,1.334
			l-0.159,0.799l-0.579,0.869l-0.334,0.673l1.111,0.529l0.049,0.667l1.529-0.36l0.7-0.379l0.735-0.63l1.056-0.759l0.729-1.075
			l1.009-0.578l1.223-0.517l1.288-0.576l2.32-0.833l2.476-1.21L458.27,345.203z"/>
	</g>
	<g id="path4165_1_">
		<path id="path359" inkscape:connector-curvature="0" fill="#079948" d="M440.98,345.69l1.53-0.536l0.911,0.217l1.239-0.217
			l1.322-0.156l0.363-0.245l-0.166,0.621l-1.359,0.453l-1.115-0.042l-0.536,0.216l-0.455,0.195l-0.503,0.55l-0.038-0.919
			L440.98,345.69z"/>
	</g>
	<g id="path4167_1_">
		<path id="path362" inkscape:connector-curvature="0" fill="#079948" d="M447.19,344.786h1.98l0.213,0.365v0.425l-0.409,0.079
			l-1.177,0.031L447.19,344.786z"/>
	</g>
	<g id="path4169_1_">
		<path id="path365" inkscape:connector-curvature="0" fill="#079948" d="M453.767,342.487l0.237,0.454l0.376-0.49l0.837-0.265
			l0.49-0.16l1.033,0.379v0.465l-1.658,0.248l-0.729,0.242l-0.259-0.549l0.083,1.137l-1.16-0.052l-0.717,0.258l0.304-0.913
			l0.523-0.336L453.767,342.487z"/>
	</g>
	<g id="path4171_1_">
		<path id="path368" inkscape:connector-curvature="0" fill="#079948" d="M463.198,323.887l-1.03,0.587l-0.205,0.334l-0.092-0.918
			l0.912-0.624l0.657-0.792l0.542-0.209l2.399,0.128l0.362,0.5l0.461-0.086l0.085-0.496l2.229-0.174l0.341,0.468l1.823,0.242
			l0.408,0.242h0.422l0.324,0.745l0.581,0.612l0.412,0.486v1.092l-0.741,0.079l-0.337-0.262h-0.802l-0.156-0.488h-0.398
			l-0.379-0.162l-0.585-0.213l-0.296-0.418l-0.198-0.184l-1.657-0.153l-0.468,0.389l-0.647,0.025l-0.421-0.496l-0.362,0.043
			l-0.298-0.213l-0.357,0.255l-0.499,0.546h-1.653L463.198,323.887z"/>
	</g>
	<g id="path4173_1_">
		<path id="path371" inkscape:connector-curvature="0" fill="#079948" d="M419.95,271.146l-1,0.374l-0.63,0.446l-0.972,1.145
			l-0.121,0.568l-0.163,0.241l-0.036,0.707l-0.841,0.676l1.498-0.941l1.006-0.718l0.356-0.54l0.791-0.3l0.281-0.686l0.909-0.416
			l0.938-0.559l0.5-1.08l0.43-0.807l0.384-0.84l-0.229-0.894l0.758-0.035l0.873,0.283l0.359-0.459l0.693-0.438l0.59-0.568
			l0.639-0.213l-0.206-0.853v-0.789l-0.468-0.476l0.376-0.703l0.146-0.766l-1.166-0.683l0.107,0.861l0.393,0.847l-0.294,0.811
			l-0.259,0.431l-0.497,0.648l-1.229,1.306l-1.853,1.686l-0.173,0.7l-0.798,0.68L419.95,271.146z"/>
	</g>
	<g id="path4175_1_">
		<path id="path374" inkscape:connector-curvature="0" fill="#079948" d="M415.741,275.926l-0.177,0.624h-0.559l0.582,0.667
			l0.23,0.646l0.217-0.796v-0.974L415.741,275.926z"/>
	</g>
	<g id="path4177_1_">
		<path id="path377" inkscape:connector-curvature="0" fill="#079948" d="M416.676,279.034l-1.026,0.907l0.643,0.293l0.531-0.498
			l0.28-0.394L416.676,279.034z"/>
	</g>
	<g id="path4179_1_">
		<path id="path380" inkscape:connector-curvature="0" fill="#079948" d="M428.553,258.097l-0.811,0.344l0.351,1l1.287-0.207
			l-0.06-0.703L428.553,258.097z"/>
	</g>
	<g id="path4181_1_">
		<path id="path383" inkscape:connector-curvature="0" fill="#079948" d="M429.259,252.914l3.478-0.131l0.145-0.798l-1.102-0.508
			l-1.125-0.328l0.043-1.198l0.872-0.799l0.582-0.705l-0.474-0.754l-0.663-0.462l-0.445,0.462l-0.317,0.754l-0.591-0.389
			l-0.483-0.523l-0.604-0.48l0.048-1.001l-0.271-0.528l-0.18-1.187l-0.316-0.471l-0.092-0.442l-0.32-0.381l-0.059-0.465
			l-0.589-0.598l0.38-0.225l0.056-0.861l0.562-0.233l0.618,0.412l0.02,0.85l0.769,0.061l0.729-0.265l-0.312-0.616l-0.297-0.441
			l0.059-1.899l0.285-0.227l0.124-3.986l0.239-0.374l0.045-0.827l0.062-0.692l0.121-0.499l0.814-0.229l0.298-0.387l0.935,0.037
			l0.869,0.298l0.674,0.07l0.624,0.39l0.526,0.437l0.728-0.024l0.647-0.615l0.33-0.242l-0.117,0.92l0.05,2.597l0.379,0.385v0.556
			l0.446,0.211l0.796,1.342l-0.072,0.606h-0.319l-0.034,0.764l-0.287,0.556l-0.213,0.716l-0.471,0.616l-0.434,0.677l-0.736,0.277
			l-0.54,0.141l-0.198,0.556l-0.608-0.025l0.232,0.412v0.676l-0.412,0.125l-0.05,0.585l-0.392,0.207l0.356,0.91l0.533,0.505
			l0.045,0.818l0.036,1.423l0.471,0.584l0.553,0.827l0.674,0.706h1.172l0.099-0.794l0.716-0.761l0.896,0.083l0.84,0.613l0.671,0.92
			l0.176,1.058l1.085,0.026l0.118-0.766l1.34,0.034l0.555,0.493l0.439,0.354l-1.105,0.058l-0.447,0.418l0.193,0.323l0.487,0.623
			l0.433,0.542l0.029,0.512l1.116,0.028l0.49,0.625l-0.079,1.381l-0.235,0.309c0,0-1.402-0.78-1.226-0.834
			c0.157-0.067,0.762-0.472,0.762-0.472l0.702-0.18l-1.525,0.144l-1.412-0.064l-0.079-0.59l-0.673-0.026l0.092-0.941l-0.305-0.271
			l-0.141-0.511l-0.44-0.047l-0.585-0.081l-0.471-0.796l-0.671-0.529l-0.993-0.505l-0.911-0.415l1.028,1.417l0.501,1.118
			l0.174,0.889l0.267,0.62l-1.859-2.325l-0.458-0.864l-1.438-0.09l-1.023,0.09l-0.909,0.864l-1.162,0.539l1.575,1.046l0.673,0.865
			v0.725v1.42l-0.472,0.317l-0.058,0.513l-0.56,0.297l-0.529,0.049l-0.022,0.466l-0.519-0.783l-0.714-0.687v-0.732l-0.317-0.459
			v-0.508l-0.372-0.325v-0.649l-0.351-0.261l-0.47-0.03L429.259,252.914z"/>
	</g>
	<g id="path4183_1_">
		<path id="path386" inkscape:connector-curvature="0" fill="#079948" d="M436.14,246.085l-0.48,0.292l0.319,0.726l0.241,0.773
			h-0.531l1.063,0.144l0.188-0.611l-0.398-0.363L436.14,246.085z"/>
	</g>
	<g id="path4185_1_">
		<path id="path389" inkscape:connector-curvature="0" fill="#079948" d="M445.532,249.974l-0.765,0.401l0.166,0.974l0.161,1.008
			l0.811-0.051l0.234,0.6l0.49-0.483l-0.258-1.043l-0.471-0.53L445.532,249.974z"/>
	</g>
	<g id="path4187_1_">
		<path id="path392" inkscape:connector-curvature="0" fill="#079948" d="M436.754,252.745l-1.092,0.08l0.118,0.694l0.764,0.498
			l0.398,0.341l0.246-0.99L436.754,252.745z"/>
	</g>
	<g id="path4189_1_">
		<path id="path395" inkscape:connector-curvature="0" fill="#079948" d="M437.016,256.136l0.669,0.033l-0.232,1.232l-0.646,0.271
			l0.114,0.467h-0.578c0,0-0.023-1,0.085-0.977c0.114,0.044,0.431,0.456,0.431,0.456L437.016,256.136z"/>
	</g>
	<g id="path4191_1_">
		<path id="path398" inkscape:connector-curvature="0" fill="#079948" d="M438.656,257.016l0.785,0.094l0.353,0.549l-0.072,0.361
			l-0.687-0.028l-0.095-0.467l-0.238-0.366L438.656,257.016z"/>
	</g>
	<g id="path4193_1_">
		<path id="path401" inkscape:connector-curvature="0" fill="#079948" d="M440.728,254.284l1.072,0.964l0.497,0.856l-0.255,0.299
			l-0.557-0.83l-0.673-0.507L440.728,254.284z"/>
	</g>
	<g id="path4195_1_">
		<path id="path404" inkscape:connector-curvature="0" fill="#079948" d="M441.924,256.667l0.415,0.57l0.798-0.222l0.365,0.539
			l0.877,0.931l0.863,0.578l0.29,0.559l0.023,0.991l-0.575-0.703l-0.487-0.412l-0.618-0.032l-0.291-0.556v-0.472l-0.373-0.15h-0.49
			l-0.124,0.284l-0.379,0.388l-0.607,0.354l-0.04-0.25l0.504-0.492L441.924,256.667z"/>
	</g>
	<g id="path4197_1_">
		<path id="path407" inkscape:connector-curvature="0" fill="#079948" d="M436.192,259.47l0.563,0.033l0.34,0.584l1.053,0.53
			l0.62,0.414h1.419l0.807,0.259l0.392,0.745l-0.755,0.801l-0.483,0.879l-0.843,0.39l0.222,0.559l-0.179,0.971l-0.046,0.469
			l-0.605-1.359l-0.892,0.127l-0.794,0.147l-0.063,0.328c0,0-0.494-0.68-0.494-0.814c0-0.114,0.203-1.613,0.203-1.613l0.472-0.287
			l-0.115-1.975l-0.697-0.446L436.192,259.47z"/>
	</g>
	<g id="path4199_1_">
		<path id="path410" inkscape:connector-curvature="0" fill="#079948" d="M441.977,263.213l0.572,0.737l0.343,0.24v0.861
			l-0.171,0.907l-0.421,0.585l-0.513,1.204l-0.477,0.335l0.437,1.149l0.229,0.907l0.323-0.493l0.213-1.296l0.316-1.68l1.076-1.354
			l1.071-1.916l0.02,0.948l0.121,1.354l-0.096,0.728l-1.146,0.923l-0.346,0.377l0.055,1.035l-0.405,0.371l0.032,0.827l-0.561,0.456
			l-0.285,0.792l0.147,0.258l-0.826,0.355l-0.468,0.646l0.146-1.172l-0.585-0.435l0.033-0.575l-0.562-0.15l-0.905-0.447
			l-0.439-0.096l-0.346-0.389l0.373-0.623l0.11-0.709h0.557l0.862-0.377l0.16-0.854l-0.252-0.502l-0.265-0.231l0.405-0.45
			l0.423-0.648v-1.117l0.806,0.054L441.977,263.213z"/>
	</g>
	<g id="path4201_1_">
		<path id="path413" inkscape:connector-curvature="0" fill="#079948" d="M445.964,266.845h0.787l0.235,0.586l0.706,0.441
			l0.321,0.66l-0.471,0.602l-0.376,0.664l-0.671-0.274l-0.768-0.405l-1.229,0.016l-0.118-0.412L445.964,266.845z"/>
	</g>
	<g id="path4203_1_">
		<path id="path416" inkscape:connector-curvature="0" fill="#079948" d="M446.409,256.721l0.166,0.517l0.393-0.634h1.215
			l1.063,0.152l-0.039-0.45l0.53,0.629l0.787,0.59l0.702,1.087l0.15,0.559l-0.248,0.415l-0.2,0.371l0.334,0.693l0.375,0.964
			l0.188,0.75v0.55h0.402h-1.438l-0.265-0.288l-0.729,0.18h-0.3l0.417,1.58l0.125,0.951l0.376,0.827l-0.071,0.847l-0.497,0.418
			v0.505l-0.817-1.415l-0.483-0.446l-0.073-0.85c0,0-0.61-0.21-0.551-0.338c0.055-0.109,0.411-1.105,0.411-1.105l-0.444-0.364
			l-0.39,0.596l-0.363-0.708l-0.113-0.796l-0.563-0.097l-0.089-0.73c0,0,0.292-0.479,0.344-0.584
			c0.073-0.112,0.249-0.348,0.249-0.348s0.35,0.813,0.49,0.813c0.146,0,0.528,0.35,0.528,0.35l0.582-0.927v-0.332l0.436-0.565
			l-0.079-0.646l-0.761-0.268l-0.327-0.358l-0.438-0.177l-0.354-0.443c0,0-0.209-0.057-0.327-0.144
			c-0.107-0.08-0.29-0.469-0.29-0.469l-0.021-0.993v0.13H446.409z"/>
	</g>
	<g id="path4205_1_">
		<path id="path419" inkscape:connector-curvature="0" fill="#079948" d="M452.249,265.63l-0.768,0.409l-0.076,0.56l0.213,0.715
			l0.55,0.526l0.329,0.32l0.02-0.813l-0.225-0.762L452.249,265.63z"/>
	</g>
	<g id="path4207_1_">
		<path id="path422" inkscape:connector-curvature="0" fill="#079948" d="M428.994,288.196c-0.117,0-1.408,0.681-1.408,0.681
			s0.401,0.555,0.529,0.555c0.121,0,2.664-0.467,2.664-0.467l-0.792-0.472L428.994,288.196z"/>
	</g>
	<g id="path4209_1_">
		<path id="path425" inkscape:connector-curvature="0" fill="#079948" d="M433.724,285.246l0.596-0.03l0.319,0.502l-1.118,0.412
			l-0.924-0.504l-0.645,0.045l0.674-0.297L433.724,285.246z"/>
	</g>
	<g id="path4211_1_">
		<path id="path428" inkscape:connector-curvature="0" fill="#079948" d="M437.089,281.829l0.417,0.465l0.853,0.178l-0.235,0.675
			h-0.731l-0.91,0.028l-0.5-0.651L437.089,281.829z"/>
	</g>
	<g id="path4213_1_">
		<path id="path431" inkscape:connector-curvature="0" fill="#079948" d="M438.505,280.922l-0.734,0.616
			c0,0-1.118-0.064-1.118-0.188c0-0.12,0.205-1.496,0.205-1.496l0.298-1l0.351-1.306l0.79-0.833c0,0,0.022-0.472,0.291-0.472
			c0.259,0,0.823,0,0.823,0l0.311-0.559l1.043-0.207l0.696-1.326l0.84-0.265l1.232,0.075l0.908,0.221l0.556,0.534l-0.297,0.958
			l-0.471,0.371l1.183-0.12c0,0,0.35-0.857,0.49-0.857c0.154,0,0.762,0.114,0.788,0c0.022-0.12,0.271-1.23,0.271-1.23l0.843,0.127
			l0.539,0.461l0.216-1.542l0.036-0.944l0.932,0.562c0,0,0.529,0.479,0.637,0.442c0.131-0.028,0.354-0.907,0.354-0.907
			s0.294-0.156,0.438-0.156c0.15,0,0.562,0,0.562,0l0.025-3.12l1.491,1.495l1.29,0.788l0.271,0.361l0.076,0.713l0.258,0.76
			l-0.102,0.866h-0.307l0.21,0.696h0.449v0.811l0.193,0.533l0.416,0.381l-0.125,1.005l0.543,0.374c0,0,0.138,0.177,0.138,0.318
			c0,0.148-0.138,1.181-0.138,1.181l-0.147,0.741l-0.497,0.525l-0.592,0.452c0,0-0.355,0.978-0.355,1.095
			c0,0.113-0.046,1.113-0.046,1.113l-0.363-1.742l-0.372-1.414l-0.503-0.479c0,0-0.614,0.603-0.614,0.713
			c0,0.117,0.179,0.895,0.179,0.895l-0.567-0.239l-0.806,0.512l-0.214,0.613l-0.047,0.529l0.811,0.792l0.621,1.009l0.293,0.761
			c0,0,0.057,0.406-0.058,0.453c-0.117,0.003-0.53,0.044-0.624,0.191c-0.075,0.157-0.32,0.629-0.343,0.763
			c-0.037,0.154-0.142,0.633-0.142,0.633l-0.898-0.125l-0.142-0.793l-0.208-0.622l0.419-0.412c0,0-0.321-0.526-0.436-0.379
			c-0.118,0.134-0.594,0.747-0.594,0.747l-0.412,0.211l-0.844-0.307c0,0-0.438-0.182-0.95-0.281
			c-0.547-0.137-0.864-0.162-0.926-0.432c-0.045-0.268-0.408-0.446-0.487-0.771c-0.082-0.317-0.382-0.931-0.582-1.378
			c-0.208-0.446-0.444-1.011-0.444-1.011s-0.12-0.485,0.059-0.7c0.178-0.21,0.386-0.732,0.386-0.732l0.841-0.687
			c0,0,0.229-0.251,0.174-0.389c-0.063-0.117-0.91-0.632-0.91-0.632l-0.773-0.515c0,0-0.602-0.45-0.716-0.45
			c-0.115,0-0.667-0.061-0.667-0.061s-0.53,0.396-0.622,0.507c-0.084,0.113-0.287,0.441-0.202,0.588
			c0.091,0.147,0.357,0.526,0.357,0.526s-0.504,0.277-0.684,0.032c-0.167-0.233-0.707-0.601-0.707-0.601l-0.149-0.31l-0.768,0.878
			c0,0-0.393-0.526-0.393-0.118c0,0.419-0.056,1.138-0.056,1.138s-0.065-1.593-0.065-1.812c0-0.21-0.317-0.552-0.317-0.552
			s-0.294-0.572-0.317-0.398c-0.042,0.177-0.412,0.924-0.412,0.924s-0.175,0.732-0.349,0.906c-0.189,0.188-0.533,0.364-0.565,0.597
			c-0.026,0.234-0.347,0.563-0.347,0.563L438.505,280.922z"/>
	</g>
	<g id="path4215_1_">
		<path id="path434" inkscape:connector-curvature="0" fill="#079948" d="M487.875,275.978l-0.53,1.417l1.292,1.181l1.038-1.406
			L487.875,275.978z"/>
	</g>
	<g id="path4217_1_">
		<path id="path437" inkscape:connector-curvature="0" sodipodi:nodetypes="ccccccccccccscccscssssssscsssc" fill="#079948" d="
			M537.728,326.939l0.933-1.471l0.183,1.596l1.276-1.125l0.706,0.347l0.646-1.645l0.928-0.774l0.816-1l-0.285-1.392l0.519-0.542
			l0.828-0.065l0.767,0.719c0,0,0.235,1.941-0.125,1.994c-0.35,0.059-1.059,1.193-1.059,1.193l0.13,1.056l-1.287,1.173
			c0,0-0.238-0.124-0.415,0.188c-0.173,0.3-0.465,1.17-0.465,1.17s-0.705,0.889-1.058,1.01c-0.344,0.118-0.585,0.062-1.001,0.118
			c-0.399,0.061-1.51,0.061-1.919,0.102c-0.404,0.074-1.11,0.143-1.464,0.074c-0.363-0.074-1.114-0.71-1.526-0.768
			c-0.411-0.063-0.81-0.406-1.223-0.596c-0.408-0.176-0.656-1.174-0.408-1.11c0.229,0.054,0.057,0.095,0.821,0.169
			c0.755,0.075,0.81,0.131,1.156-0.071c0.346-0.158,0.121-0.692,0.816-0.692c0.717,0,0.717-0.118,0.945,0.071
			C537.197,326.822,537.728,326.939,537.728,326.939L537.728,326.939z"/>
	</g>
	<g id="path4219_1_">
		<path id="path440" inkscape:connector-curvature="0" fill="#079948" d="M545.631,321.69l0.522,1.176l0.523-1.474l-0.235-1.406
			c0,0-0.756-1.604-1.227-1.722c-0.471-0.111-1.817-1.294-1.817-1.294s-0.183-0.935-0.516-1.004
			c-0.359-0.048-1.411-0.349-1.411-0.349s0.29,0.657,0.699,0.712c0.404,0.055,1.759,1.003,1.759,1.003l0.815,1.471l0.828,0.715
			l0.407,0.994L545.631,321.69z"/>
	</g>
	<g id="path4221_1_">
		<path id="path443" inkscape:connector-curvature="0" fill="#079948" d="M550.886,324.465l0.948,1.645l-0.182,1.127l0.473,0.588
			l0.062,0.351l-0.411,0.961l-1.114-2.366l-0.582-1.184l0.173-0.477L550.886,324.465z"/>
	</g>
	<g id="g455">
		<g id="g449">
			<path id="path447" inkscape:connector-curvature="0" fill="#079948" d="M417.754,470.182
				c-101.716,0-184.168-83.28-184.168-185.99c0-102.718,82.453-185.99,184.168-185.99c30.469,0,59.171,7.513,84.479,20.736
				L487.345,14.881c0,0-106.232,19.424-184.594,67.034c-75.624,45.955-129.7,98.815-172.035,158.531
				c-17.799,25.102-62.884,105.862-62.884,105.862l324.759,185.81l47.627-63.367C432.855,469.654,425.364,470.182,417.754,470.182
				L417.754,470.182z"/>
		</g>
		<g id="g453">
			<path id="path451" inkscape:connector-curvature="0" fill="#FFFFFF" d="M393.676,537.354L62.4,347.818l1.931-3.465
				c1.851-3.301,45.392-81.233,63.117-106.227c45.572-64.28,102.233-116.498,173.226-159.639
				c78.087-47.444,184.88-67.355,185.95-67.553l4.112-0.75l16.576,115.939l-6.936-3.628c-25.759-13.458-53.553-20.282-82.619-20.282
				c-99.34,0-180.157,81.633-180.157,181.981c0,100.34,80.814,181.976,180.157,181.976c7.109,0,14.293-0.451,21.978-1.403
				l9.363-1.146L393.676,537.354z M73.283,344.799l318.229,182.075l40.001-53.216c-4.677,0.356-9.236,0.529-13.757,0.529
				c-103.766,0-188.185-85.227-188.185-189.996S313.991,94.185,417.757,94.185c27.792,0,54.466,5.972,79.42,17.759l-13.198-92.307
				C463.77,23.764,373.036,43.905,304.84,85.342c-70.032,42.563-125.918,94.057-170.843,157.426
				C118.607,264.459,82.105,329.091,73.283,344.799L73.283,344.799z"/>
		</g>
	</g>
	<g id="g475">
		<g id="g461">
			
				<rect id="rect457" x="30.332" y="450.182" transform="matrix(-0.8698 -0.4934 0.4934 -0.8698 179.9764 973.0171)" fill="#079948" width="376.069" height="25.161"/>
			<path id="path459" inkscape:connector-curvature="0" fill="#FFFFFF" d="M377.223,571.953L43.139,382.444L59.51,353.57
				l334.091,189.517L377.223,571.953z M54.078,379.42l320.121,181.597l8.461-14.908L62.527,364.516L54.078,379.42z"/>
		</g>
		<g id="g467">
			
				<rect id="rect463" x="11.814" y="483.479" transform="matrix(-0.8698 -0.4934 0.4934 -0.8698 129.2544 1024.8575)" fill="#079948" width="376.065" height="23.793"/>
			<path id="path465" inkscape:connector-curvature="0" fill="#FFFFFF" d="M359.064,603.982L24.973,414.474l15.705-27.689
				l334.097,189.512L359.064,603.982z M35.912,411.447L356.04,593.04l7.783-13.733L43.698,397.713L35.912,411.447z"/>
		</g>
		<g id="g473">
			
				<rect id="rect469" x="-6.472" y="515.464" transform="matrix(0.8698 0.4934 -0.4934 0.8698 284.0128 -20.8768)" fill="#079948" width="376.072" height="24.501"/>
			<path id="path471" inkscape:connector-curvature="0" fill="#FFFFFF" d="M340.551,636.615L6.451,447.112l16.055-28.292
				l334.089,189.497L340.551,636.615z M17.393,444.085l320.135,181.591l8.128-14.336L25.525,429.764L17.393,444.085z"/>
		</g>
	</g>
</g>
</svg>
